<svg width="17" height="17" viewBox="0 0 17 17" fill="none" xmlns="http://www.w3.org/2000/svg">
<g clipPath="url(#clip0_408_2611)">
<path d="M5.16667 0.5H3.16667C2.45942 0.5 1.78115 0.780952 1.28105 1.28105C0.780952 1.78115 0.5 2.45942 0.5 3.16667L0.5 5.16667C0.5 5.87391 0.780952 6.55219 1.28105 7.05229C1.78115 7.55238 2.45942 7.83333 3.16667 7.83333H5.16667C5.87391 7.83333 6.55219 7.55238 7.05229 7.05229C7.55238 6.55219 7.83333 5.87391 7.83333 5.16667V3.16667C7.83333 2.45942 7.55238 1.78115 7.05229 1.28105C6.55219 0.780952 5.87391 0.5 5.16667 0.5V0.5ZM6.5 5.16667C6.5 5.52029 6.35952 5.85943 6.10948 6.10948C5.85943 6.35952 5.52029 6.5 5.16667 6.5H3.16667C2.81304 6.5 2.47391 6.35952 2.22386 6.10948C1.97381 5.85943 1.83333 5.52029 1.83333 5.16667V3.16667C1.83333 2.81304 1.97381 2.47391 2.22386 2.22386C2.47391 1.97381 2.81304 1.83333 3.16667 1.83333H5.16667C5.52029 1.83333 5.85943 1.97381 6.10948 2.22386C6.35952 2.47391 6.5 2.81304 6.5 3.16667V5.16667Z" fill="#929292"/>
<path d="M5.16667 9.16675H3.16667C2.45942 9.16675 1.78115 9.4477 1.28105 9.9478C0.780952 10.4479 0.5 11.1262 0.5 11.8334L0.5 13.8334C0.5 14.5407 0.780952 15.2189 1.28105 15.719C1.78115 16.2191 2.45942 16.5001 3.16667 16.5001H5.16667C5.87391 16.5001 6.55219 16.2191 7.05229 15.719C7.55238 15.2189 7.83333 14.5407 7.83333 13.8334V11.8334C7.83333 11.1262 7.55238 10.4479 7.05229 9.9478C6.55219 9.4477 5.87391 9.16675 5.16667 9.16675ZM6.5 13.8334C6.5 14.187 6.35952 14.5262 6.10948 14.7762C5.85943 15.0263 5.52029 15.1668 5.16667 15.1668H3.16667C2.81304 15.1668 2.47391 15.0263 2.22386 14.7762C1.97381 14.5262 1.83333 14.187 1.83333 13.8334V11.8334C1.83333 11.4798 1.97381 11.1407 2.22386 10.8906C2.47391 10.6406 2.81304 10.5001 3.16667 10.5001H5.16667C5.52029 10.5001 5.85943 10.6406 6.10948 10.8906C6.35952 11.1407 6.5 11.4798 6.5 11.8334V13.8334Z" fill="#929292"/>
<path d="M13.8337 9.16675H11.8337C11.1264 9.16675 10.4481 9.4477 9.94804 9.9478C9.44794 10.4479 9.16699 11.1262 9.16699 11.8334V13.8334C9.16699 14.5407 9.44794 15.2189 9.94804 15.719C10.4481 16.2191 11.1264 16.5001 11.8337 16.5001H13.8337C14.5409 16.5001 15.2192 16.2191 15.7193 15.719C16.2194 15.2189 16.5003 14.5407 16.5003 13.8334V11.8334C16.5003 11.1262 16.2194 10.4479 15.7193 9.9478C15.2192 9.4477 14.5409 9.16675 13.8337 9.16675ZM15.167 13.8334C15.167 14.187 15.0265 14.5262 14.7765 14.7762C14.5264 15.0263 14.1873 15.1668 13.8337 15.1668H11.8337C11.48 15.1668 11.1409 15.0263 10.8908 14.7762C10.6408 14.5262 10.5003 14.187 10.5003 13.8334V11.8334C10.5003 11.4798 10.6408 11.1407 10.8908 10.8906C11.1409 10.6406 11.48 10.5001 11.8337 10.5001H13.8337C14.1873 10.5001 14.5264 10.6406 14.7765 10.8906C15.0265 11.1407 15.167 11.4798 15.167 11.8334V13.8334Z" fill="#929292"/>
<path d="M9.83366 5.16675H11.8337V7.16675C11.8337 7.34356 11.9039 7.51313 12.0289 7.63815C12.1539 7.76318 12.3235 7.83342 12.5003 7.83342C12.6771 7.83342 12.8467 7.76318 12.9717 7.63815C13.0968 7.51313 13.167 7.34356 13.167 7.16675V5.16675H15.167C15.3438 5.16675 15.5134 5.09651 15.6384 4.97149C15.7634 4.84646 15.8337 4.67689 15.8337 4.50008C15.8337 4.32327 15.7634 4.1537 15.6384 4.02868C15.5134 3.90365 15.3438 3.83341 15.167 3.83341H13.167V1.83341C13.167 1.6566 13.0968 1.48703 12.9717 1.36201C12.8467 1.23699 12.6771 1.16675 12.5003 1.16675C12.3235 1.16675 12.1539 1.23699 12.0289 1.36201C11.9039 1.48703 11.8337 1.6566 11.8337 1.83341V3.83341H9.83366C9.65685 3.83341 9.48728 3.90365 9.36225 4.02868C9.23723 4.1537 9.16699 4.32327 9.16699 4.50008C9.16699 4.67689 9.23723 4.84646 9.36225 4.97149C9.48728 5.09651 9.65685 5.16675 9.83366 5.16675Z" fill="#929292"/>
</g>
<defs>
<clipPath id="clip0_408_2611">
<rect width="16" height="16" fill="white" transform="translate(0.5 0.5)"/>
</clipPath>
</defs>
</svg>
