<svg width="24" height="24" viewBox="0 0 24 24" fill="none" xmlns="http://www.w3.org/2000/svg">
<g clipPath="url(#clip0_243_5717)">
<path d="M23.3599 9.8C23.7589 9.28855 23.9824 8.66209 23.9972 8.01358C24.0119 7.36508 23.8172 6.72909 23.4419 6.2L19.9109 1.257C19.6335 0.86832 19.2673 0.551492 18.8427 0.332861C18.4181 0.11423 17.9475 0.000113137 17.4699 0L6.53195 0C6.05439 0.000113137 5.58377 0.11423 5.1592 0.332861C4.73464 0.551492 4.3684 0.86832 4.09095 1.257L0.559945 6.2C0.185388 6.72953 -0.00860942 7.36564 0.0067007 8.01407C0.0220108 8.6625 0.245814 9.28874 0.644945 9.8L12.0009 24.108L23.3599 9.8ZM7.25394 9L10.0539 18.432L2.56295 9H7.25394ZM21.4389 9L13.9529 18.432L16.7479 9H21.4389ZM14.6619 9L12.0009 17.979L9.33994 9H14.6619ZM9.32695 7L10.7549 2H13.2469L14.6749 7H9.32695ZM18.2839 2.419L21.5559 7H16.7559L15.3269 2H17.4699C17.6292 1.99998 17.7861 2.038 17.9277 2.11088C18.0693 2.18376 18.1914 2.28939 18.2839 2.419ZM5.71795 2.419C5.81046 2.28939 5.9326 2.18376 6.07418 2.11088C6.21576 2.038 6.3727 1.99998 6.53195 2H8.67494L7.24694 7H2.44695L5.71795 2.419Z" fill="url(#paint0_linear_243_5717)"/>
</g>
<defs>
<linearGradient id="paint0_linear_243_5717" x1="12.0019" y1="0" x2="28.6672" y2="3.83915" gradientUnits="userSpaceOnUse">
<stop stopColor="#FE6546"/>
<stop offset="1" stopColor="#FF9E0D"/>
</linearGradient>
<clipPath id="clip0_243_5717">
<rect width="24" height="24" fill="white"/>
</clipPath>
</defs>
</svg>
