<svg width="16" height="17" viewBox="0 0 16 17" fill="none" xmlns="http://www.w3.org/2000/svg">
<path d="M14.805 3.85287C14.2075 2.85702 13.1452 2.19312 11.9502 2.19312H3.98341C2.78837 2.19312 1.72616 2.85702 1.12863 3.85287C0.398344 5.18068 0 6.64127 0 8.16824C0 11.8197 1.46059 14.8072 3.3195 14.8072C4.31534 14.8072 5.11203 13.8778 5.70953 11.9525C5.77591 11.6869 6.04147 11.4877 6.37344 11.4877H9.62656C9.89212 11.4877 10.1577 11.6869 10.2905 11.9525C10.888 13.8778 11.6847 14.8072 12.6805 14.8072C14.5394 14.8072 16 11.8197 16 8.16824C15.9336 6.64127 15.5353 5.18068 14.805 3.85287ZM12.6141 13.4794C12.4149 13.4794 11.9502 12.9483 11.4855 11.5541C11.2199 10.6911 10.4232 10.1599 9.56016 10.1599H6.37344C5.51038 10.1599 4.71369 10.7574 4.44812 11.5541C3.98341 12.9483 3.51866 13.4794 3.3195 13.4794C2.65559 13.4794 1.32781 11.4213 1.32781 8.16824C1.32781 6.90683 1.65975 5.64543 2.25728 4.5168C2.65563 3.9193 3.31953 3.52096 3.98344 3.52096H11.9502C12.6142 3.52096 13.2781 3.9193 13.6764 4.5168C14.2739 5.64543 14.6059 6.90683 14.6059 8.16824C14.6058 11.4213 13.278 13.4794 12.6141 13.4794Z" fill="#929292"/>
<path d="M6.00028 6.50006H5.33362V5.8334C5.33362 5.4334 5.06696 5.16675 4.66696 5.16675C4.26696 5.16675 4.00031 5.4334 4.00031 5.8334V6.50006H3.33365C2.93365 6.50006 2.66699 6.76671 2.66699 7.16671C2.66699 7.56671 2.93365 7.83337 3.33365 7.83337H4.00028V8.50005C4.00028 8.90005 4.26693 9.16671 4.66693 9.16671C5.06693 9.16671 5.33359 8.90005 5.33359 8.50005V7.8334H6.00028C6.40028 7.8334 6.66693 7.56674 6.66693 7.16674C6.66693 6.76671 6.40028 6.50006 6.00028 6.50006Z" fill="#929292"/>
<path d="M12.333 7.16675C12.8853 7.16675 13.333 6.71903 13.333 6.16675C13.333 5.61446 12.8853 5.16675 12.333 5.16675C11.7807 5.16675 11.333 5.61446 11.333 6.16675C11.333 6.71903 11.7807 7.16675 12.333 7.16675Z" fill="#929292"/>
<path d="M10.333 9.16676C10.8853 9.16676 11.333 8.71904 11.333 8.16675C11.333 7.61447 10.8853 7.16675 10.333 7.16675C9.78072 7.16675 9.33301 7.61447 9.33301 8.16675C9.33301 8.71904 9.78072 9.16676 10.333 9.16676Z" fill="#929292"/>
</svg>
