<svg width="60" height="60" viewBox="0 0 60 60" fill="none" xmlns="http://www.w3.org/2000/svg">
<rect width="60" height="60" rx="30" fill="#E2E2E2"/>
<g clip-path="url(#clip0_626_2024)">
<path d="M45.7153 27.0442L31.8471 27.0436C31.2347 27.0436 30.7383 27.5399 30.7383 28.1523V32.5826C30.7383 33.1949 31.2347 33.6913 31.847 33.6913H39.6568C38.8016 35.9107 37.2055 37.7693 35.169 38.9503L38.4991 44.7149C43.841 41.6255 46.9991 36.2049 46.9991 30.1368C46.9991 29.2728 46.9354 28.6551 46.8081 27.9597C46.7112 27.4313 46.2525 27.0442 45.7153 27.0442Z" fill="#167EE6"/>
<path d="M30.0001 40.3478C26.1781 40.3478 22.8416 38.2596 21.0496 35.1696L15.2852 38.4921C18.2187 43.5763 23.714 47 30.0001 47C33.0838 47 35.9935 46.1698 38.5 44.7228V44.7149L35.17 38.9502C33.6467 39.8337 31.8841 40.3478 30.0001 40.3478Z" fill="#12B347"/>
<path d="M38.5 44.7228V44.7149L35.1699 38.9502C33.6467 39.8336 31.8841 40.3478 30 40.3478V47C33.0837 47 35.9936 46.1698 38.5 44.7228Z" fill="#0F993E"/>
<path d="M19.6522 30C19.6522 28.1162 20.1663 26.3537 21.0496 24.8305L15.2851 21.5079C13.8302 24.0066 13 26.9084 13 30C13 33.0916 13.8302 35.9935 15.2851 38.4921L21.0496 35.1696C20.1663 33.6464 19.6522 31.8839 19.6522 30Z" fill="#FFD500"/>
<path d="M30 19.6522C32.4923 19.6522 34.7816 20.5378 36.5698 22.0109C37.0109 22.3742 37.652 22.348 38.0561 21.9439L41.1951 18.8049C41.6536 18.3464 41.6209 17.596 41.1312 17.1711C38.1353 14.572 34.2372 13 30 13C23.714 13 18.2187 16.4237 15.2852 21.5079L21.0496 24.8305C22.8416 21.7404 26.1781 19.6522 30 19.6522Z" fill="#FF4B26"/>
<path d="M36.5697 22.0109C37.0108 22.3742 37.6521 22.348 38.0561 21.9439L41.1951 18.8049C41.6535 18.3464 41.6208 17.596 41.1311 17.1711C38.1352 14.572 34.2372 13 30 13V19.6522C32.4922 19.6522 34.7816 20.5378 36.5697 22.0109Z" fill="#D93F21"/>
</g>
<defs>
<clipPath id="clip0_626_2024">
<rect width="34" height="34" fill="white" transform="translate(13 13)"/>
</clipPath>
</defs>
</svg>
