<svg width="10" height="10" viewBox="0 0 10 10" fill="none" xmlns="http://www.w3.org/2000/svg">
<path d="M7.64461 1.7843C7.52928 1.7843 7.41656 1.8185 7.32067 1.88257C7.22479 1.94664 7.15005 2.03771 7.10591 2.14425C7.06178 2.2508 7.05023 2.36804 7.07273 2.48115C7.09522 2.59426 7.15076 2.69815 7.23231 2.7797C7.31385 2.86125 7.41776 2.91678 7.53086 2.93928C7.64397 2.96178 7.7612 2.95023 7.86775 2.9061C7.97429 2.86197 8.06536 2.78723 8.12944 2.69134C8.19351 2.59545 8.2277 2.48272 8.2277 2.36739C8.2277 2.21275 8.16627 2.06444 8.05692 1.95508C7.94757 1.84573 7.79925 1.7843 7.64461 1.7843Z" fill="#BDBDBD"/>
<path d="M5.03774 2.53638C4.54942 2.53523 4.07175 2.67905 3.66525 2.94963C3.25874 3.22021 2.9417 3.60535 2.75429 4.05628C2.56689 4.50721 2.51756 5.00362 2.61254 5.48261C2.70752 5.9616 2.94255 6.40161 3.28784 6.74691C3.63314 7.0922 4.07315 7.32723 4.55214 7.42221C5.03113 7.5172 5.52755 7.46786 5.97848 7.28046C6.4294 7.09305 6.81454 6.77601 7.08512 6.36951C7.35569 5.96301 7.49951 5.48534 7.49836 4.99703C7.49682 4.3449 7.23708 3.71992 6.77596 3.25879C6.31483 2.79767 5.68987 2.53792 5.03774 2.53638ZM5.03774 6.5772C4.72521 6.5772 4.41969 6.48452 4.15983 6.31089C3.89997 6.13726 3.69744 5.89047 3.57784 5.60173C3.45824 5.31299 3.42695 4.99527 3.48792 4.68875C3.5489 4.38223 3.69939 4.10066 3.92038 3.87967C4.14138 3.65868 4.42292 3.50818 4.72945 3.44721C5.03597 3.38624 5.35369 3.41753 5.64243 3.53713C5.93117 3.65673 6.17796 3.85927 6.35159 4.11913C6.52523 4.37898 6.61791 4.6845 6.61791 4.99703C6.61868 5.20475 6.57832 5.41058 6.49918 5.60264C6.42004 5.79471 6.30368 5.96921 6.1568 6.1161C6.00991 6.26298 5.8354 6.37935 5.64334 6.45848C5.45127 6.53762 5.24546 6.57797 5.03774 6.5772Z" fill="#BDBDBD"/>
<path d="M6.99708 10H3.00875C2.21179 10 1.44738 9.68381 0.883301 9.12082C0.319219 8.55783 0.0015445 7.79404 0 6.99708V3.00292C0.00154105 2.20697 0.318415 1.44405 0.881237 0.881233C1.44406 0.318411 2.20696 0.00154105 3.00291 0H6.99708C7.79303 0.00154105 8.55594 0.318411 9.11876 0.881233C9.68158 1.44405 9.99846 2.20697 10 3.00292V6.99708C9.99846 7.79303 9.68158 8.55594 9.11876 9.11876C8.55594 9.68158 7.79303 9.99846 6.99708 10ZM3.00875 0.944603C2.46231 0.944601 1.93817 1.16128 1.55124 1.54712C1.1643 1.93296 0.946147 2.45648 0.944604 3.00292V6.99708C0.946147 7.54352 1.1643 8.06704 1.55124 8.45288C1.93817 8.83872 2.46231 9.05539 3.00875 9.05539H6.99708C7.54352 9.05539 8.06766 8.83872 8.4546 8.45288C8.84153 8.06704 9.05969 7.54352 9.06123 6.99708V3.00292C9.05969 2.45648 8.84153 1.93296 8.4546 1.54712C8.06766 1.16128 7.54352 0.944601 6.99708 0.944603H3.00875Z" fill="#BDBDBD"/>
</svg>
