<svg width="52" height="22" viewBox="0 0 52 22" fill="none" xmlns="http://www.w3.org/2000/svg">
<g clipPath="url(#clip0_377_4002)">
<path fill-rule="evenodd" clip-rule="evenodd" d="M0.607402 17.938C0.616914 17.8526 0.635855 17.7672 0.654879 17.6913L0.711785 17.3781C0.721298 17.3306 0.721298 17.2737 0.74028 17.2167C0.749751 17.1693 0.759221 17.1313 0.768733 17.0934C0.778246 17.0079 0.797186 16.9225 0.806698 16.8277C0.816211 16.7422 0.844664 16.6568 0.854176 16.5904C0.854176 16.5334 0.939619 16.0494 0.958559 16.0114C0.958559 15.9355 1.0725 15.2237 1.09144 15.1857C1.10095 15.0529 1.14834 14.901 1.15786 14.7681C1.16737 14.6162 1.22432 14.4169 1.2433 14.2651C1.25281 14.1322 1.29078 13.9614 1.30976 13.8285C1.31927 13.7526 1.3287 13.6957 1.34772 13.6102C1.35724 13.5533 1.37622 13.4963 1.37622 13.4204C1.40467 13.3255 1.41418 13.1452 1.44264 13.0692C1.45215 12.9269 1.49012 12.7845 1.5091 12.6421C1.51857 12.5852 1.52804 12.5472 1.53755 12.4808C1.54706 12.4333 1.53755 12.3954 1.56605 12.3764C1.56605 12.253 1.61348 12.1296 1.61348 12.0252C1.64198 11.8639 1.67994 11.693 1.69892 11.5317C1.71791 11.4178 1.73689 11.3134 1.75587 11.1995C1.76534 11.1615 1.77481 11.0761 1.78432 11.0382C1.79384 10.9813 1.80331 10.9622 1.80331 10.9053C1.81278 10.8199 1.83176 10.7345 1.85074 10.649C1.86026 10.5826 1.88871 10.4782 1.88871 10.4213C1.90769 10.3264 1.92672 10.222 1.93619 10.1365C1.9457 9.94668 2.02163 9.7569 2.02163 9.5576C2.04057 9.51013 2.06911 9.3488 2.06911 9.30132C2.08805 9.2064 2.10707 9.10202 2.11658 9.01658L2.20203 8.49458C2.2115 8.45661 2.2115 8.4471 2.2115 8.40913C2.2115 8.39015 2.2115 8.39015 2.22101 8.37117L2.23052 8.35219C2.23052 8.20984 2.27796 8.03899 2.29694 7.90612C2.29694 7.84921 2.34442 7.57394 2.3634 7.54545C2.3634 7.42208 2.40137 7.37464 2.40137 7.26071C2.41088 7.21323 2.44884 7.04243 2.44884 6.98548C2.44884 6.91906 2.46778 6.89061 2.4773 6.82415L2.55323 6.42551C2.55323 6.30215 2.57221 6.24516 2.59123 6.13126C2.6007 6.0933 2.6292 5.91294 2.63867 5.86555C2.64818 5.7801 2.66716 5.72316 2.67663 5.62828C2.68615 5.56182 2.76208 5.03031 2.79057 5.00186C2.79057 4.91642 2.80004 4.89748 2.81903 4.82154C2.82854 4.75508 2.8665 4.42291 2.895 4.39441C2.895 4.29003 2.91394 4.2141 2.93296 4.10967C2.9519 4.01476 2.9519 3.94834 2.9804 3.87241L3.08482 3.27448C3.08482 3.19851 3.17027 2.68602 3.18921 2.65757C3.18921 2.57212 3.26514 2.11658 3.29359 2.05964C3.29359 1.99318 3.34107 1.69897 3.36005 1.66096C3.36005 1.57556 3.3885 1.42374 3.40753 1.3383C3.40753 1.28135 3.53089 0.579033 3.54036 0.541026C3.54036 0.40819 3.58784 0.246816 3.60682 0.113938C3.60682 0.0380073 3.6163 0.05699 3.62577 0H24.2687L24.1738 0.626384C24.1548 0.721298 24.1833 0.66435 24.1358 0.702315L24.1453 0.749793C24.1168 0.892141 24.0409 1.51857 23.9934 1.58499C24.0029 1.67043 23.9175 2.23987 23.8795 2.29681C23.889 2.39168 23.8036 2.86629 23.7751 2.98015L23.7182 3.30285L23.5379 4.28995C23.5474 4.35636 23.4619 4.87837 23.4335 4.92584C23.443 5.06819 23.386 5.28651 23.3575 5.43837L23.2721 5.94135C23.2626 5.96033 23.2626 5.96033 23.2626 5.97936L23.2531 6.00781C23.2626 6.08374 23.2436 6.2641 23.1962 6.321C23.2056 6.42539 23.1582 6.62473 23.1392 6.72911C23.1203 6.843 23.0444 7.39346 23.0064 7.44089C23.0159 7.52634 22.9494 7.98188 22.902 8.03887C22.9115 8.0863 22.864 8.47543 22.8165 8.53237C22.8355 8.65574 22.7217 9.12084 22.7026 9.29164C22.6742 9.39606 22.6647 9.50996 22.6457 9.61434L22.5793 9.94652C22.5888 9.99399 22.5318 10.478 22.4749 10.5539C22.4938 10.6299 22.4654 10.8102 22.4179 10.8672C22.4274 10.9526 22.399 11.0475 22.3895 11.1424L22.2851 11.6644C22.2946 11.7308 22.2661 11.9491 22.2281 11.9966C22.2377 12.0914 22.1902 12.4236 22.1427 12.4901C22.1522 12.585 22.1238 12.6894 22.1047 12.7843C22.0952 12.8508 22.0763 13.0216 22.0383 13.0691C22.0478 13.126 22.0383 13.1735 22.0288 13.2304C22.0288 13.2589 22.0193 13.2873 22.0099 13.3159C22.0004 13.3728 22.0099 13.3443 21.9814 13.3823C21.9909 13.4487 21.9814 13.4867 21.9719 13.5436C21.9719 13.5626 21.9624 13.6006 21.9624 13.6196C21.9529 13.6765 21.9624 13.648 21.9339 13.686L21.877 14.1321C21.839 14.246 21.915 14.0372 21.8675 14.1605C21.8675 14.1605 21.858 14.1795 21.858 14.17C21.858 14.17 21.858 14.1796 21.8485 14.1796C21.858 14.2365 21.8485 14.2839 21.839 14.3409L21.801 14.4832C21.82 14.5592 21.7535 14.9578 21.7156 15.0148C21.7251 15.1097 21.6587 15.5557 21.6112 15.6127C21.6207 15.7076 21.5732 16.0588 21.5257 16.1157C21.5353 16.1917 21.5162 16.3625 21.4783 16.4194C21.4878 16.5049 21.4593 16.6092 21.4403 16.7042L21.3738 17.1218C21.3644 17.1882 21.3264 17.454 21.2979 17.5109C21.3169 17.6058 21.279 17.7292 21.26 17.8336C21.241 17.9285 21.241 18.0614 21.1935 18.1279C21.203 18.2133 21.1745 18.3082 21.165 18.3936C21.1555 18.4695 21.1461 18.5834 21.1081 18.6308C21.1271 18.7448 21.0607 18.982 21.0417 19.1054C21.0227 19.2288 21.0227 19.4566 20.9562 19.542C20.9657 19.6369 20.9183 19.988 20.8708 20.045C20.8803 20.1304 20.8044 20.6049 20.7664 20.6524C20.7759 20.7663 20.7095 21.0795 20.6905 21.2123C20.6715 21.3547 20.6999 21.3737 20.5576 21.3832H2.71443V21.3737C2.14495 21.3737 1.57552 21.3737 1.01555 21.3832H0C0.00947027 21.3072 0.0284529 21.2218 0.0474776 21.1364L0.123408 20.6429C0.132878 20.6049 0.151861 20.4341 0.170886 20.4151C0.170886 20.3582 0.237304 19.9216 0.256329 19.8931C0.256329 19.8267 0.275269 19.7317 0.284781 19.6748C0.49359 18.4599 0.332259 19.5135 0.579033 17.9095L0.607486 17.9379L0.607402 17.938ZM4.93527 19.5895H8.14325C9.13982 14.6826 10.4686 6.86203 11.3512 1.72742L8.17179 1.72738C8.20975 2.85678 5.08722 18.7447 4.94483 19.599L4.93531 19.5895H4.93527ZM12.9646 14.3979C12.9362 14.4643 12.9267 14.5877 12.9172 14.6731C12.9077 14.7585 12.8697 14.863 12.8697 14.9579C12.8697 15.0148 12.8412 15.0907 12.8317 15.1477C12.8222 15.2141 12.8033 15.2996 12.7938 15.3755C12.7748 15.404 12.7273 15.6982 12.7273 15.7646C12.6989 15.8026 12.6229 16.2866 12.6229 16.372L12.5186 16.9035C12.4996 17.0459 12.4521 17.1598 12.4711 17.3401C12.4995 17.6248 12.7463 17.8052 13.05 17.7577C13.2778 17.7197 13.2588 17.7008 13.4107 17.6153C13.4676 17.5205 13.6954 17.3306 13.6764 17.1788C13.7144 17.1218 13.7808 16.6852 13.7903 16.6188C13.8188 16.4954 13.8947 16.1158 13.8852 16.0208L13.8947 15.9924C13.8947 15.9829 13.9707 15.7646 13.9516 15.6317L13.9801 15.5368C13.9896 15.5083 13.9896 15.4704 13.9991 15.4324C14.0085 15.366 14.037 15.2901 14.018 15.2236C14.0275 15.2047 14.0275 15.2236 14.037 15.1856L14.0559 15.1002C14.0654 15.0337 14.0654 15.0337 14.0654 14.9768C14.1129 14.9199 14.1319 14.6636 14.1509 14.5687C14.1698 14.4454 14.2363 14.1796 14.2268 14.0752L14.2932 13.7904C14.3122 13.6861 14.3407 13.5816 14.3312 13.4868C14.3597 13.4488 14.3597 13.3918 14.3501 13.3349C14.4356 13.202 14.3027 12.6895 14.2553 12.5471C14.2078 12.4143 13.961 12.0156 13.8851 11.9777C13.8662 11.9302 13.6574 11.6455 13.6099 11.617C13.5909 11.5601 13.6099 11.6075 13.5719 11.5601L13.3062 11.2279L13.2398 11.1235C13.1543 11.0191 12.7557 10.4971 12.7177 10.4876C12.6988 10.4212 12.5374 10.2313 12.4805 10.1649C12.433 10.108 12.2717 9.88014 12.2337 9.8612C12.2148 9.82323 11.9869 9.50053 11.949 9.48155C11.9015 9.36765 11.8161 9.26323 11.7497 9.14937C11.7212 9.10189 11.6832 9.03548 11.6547 8.96902C11.6358 8.92158 11.6073 8.82667 11.5788 8.7887C11.5408 8.57038 11.5219 8.466 11.5313 8.22874L11.6168 7.62133L11.7592 6.82406C11.7876 6.69123 11.8636 6.34954 11.8446 6.23564C11.892 6.16918 11.93 5.8655 11.93 5.77055C11.968 5.72307 12.0439 5.23904 12.0344 5.17262C12.1009 5.06819 12.1293 4.62212 12.1768 4.46079C12.1957 4.32795 12.2717 4.0337 12.2622 3.91985C12.2812 3.90091 12.2717 3.91985 12.2812 3.88188L12.3191 3.72055C12.3381 3.65409 12.3666 3.57816 12.3571 3.51174C12.3856 3.47378 12.3761 3.49276 12.3951 3.43577C12.4046 3.40732 12.414 3.38834 12.4236 3.35984C12.4425 3.30293 12.4615 3.26497 12.4615 3.19851C12.509 3.15103 12.566 2.9897 12.5944 2.91377L12.7463 2.62903C12.7937 2.60054 12.8412 2.52461 12.8791 2.47717C12.9266 2.41071 12.9646 2.38226 13.0215 2.33478C13.069 2.29681 13.3347 2.1165 13.3442 2.09752C13.4296 2.06906 13.5245 2.00265 13.6194 1.96468C13.7143 1.92667 13.7998 1.88871 13.9042 1.86026C14.1225 1.79384 14.3123 1.76538 14.5495 1.74636C15.2234 1.72742 15.9163 1.74636 16.5996 1.74636C17.2545 1.74636 17.8714 1.80327 18.2226 2.18292C18.2985 2.25885 18.4598 2.47717 18.5073 2.61005C18.5453 2.72394 18.5927 2.80934 18.6212 2.93275C18.6497 3.06559 18.6592 3.189 18.6592 3.35033C18.6592 3.40728 18.6497 3.5117 18.6402 3.58759C18.6307 3.66352 18.6118 3.75843 18.6118 3.84388C18.6023 3.92932 18.5738 4.0337 18.5643 4.1191C18.5548 4.21402 18.5358 4.34689 18.5073 4.42283C18.5073 4.48924 18.4789 4.59367 18.4694 4.6696C18.4504 4.76447 18.4314 4.85943 18.4219 4.94483C18.4124 4.97328 18.3745 5.1916 18.3745 5.22957C18.365 5.29603 18.346 5.37191 18.327 5.45731C18.308 5.55223 18.289 5.63767 18.289 5.73254C18.2605 5.81798 18.2511 5.93188 18.2321 6.03626C18.2131 6.15963 18.1941 6.25459 18.1752 6.36844C18.1752 6.4349 18.1372 6.59619 18.1277 6.65318C18.1182 6.71013 18.1182 6.72911 18.1087 6.79557C18.0992 6.843 18.0803 6.89995 18.0803 6.96637C18.0708 7.03283 18.0518 7.11823 18.0328 7.19416C18.0138 7.2796 17.9948 7.37448 17.9948 7.45041C17.9853 7.50735 17.9664 7.58328 17.9474 7.65921L15.4133 7.66873C15.4133 7.48841 15.5272 7.16571 15.5176 6.99482C15.5651 6.93792 15.6126 6.57721 15.6031 6.49185C15.6221 6.46335 15.6126 6.49185 15.6221 6.44437L15.698 5.94135C15.7549 5.87489 15.8024 5.33395 15.8403 5.21054C15.8593 5.07766 15.9163 4.87837 15.9068 4.75496C15.9448 4.69805 15.9448 4.55566 15.9732 4.48924L15.9827 4.39433L16.0112 4.27096C16.0872 3.90082 15.9448 3.57812 15.5557 3.57812C15.2425 3.57812 14.9197 3.76795 14.8248 4.0337C14.8059 4.08118 14.8059 4.10963 14.7869 4.1476C14.7679 4.24251 14.7394 4.37539 14.7394 4.4703C14.7205 4.55575 14.7109 4.61265 14.6919 4.70756C14.673 4.80248 14.654 4.87841 14.654 4.98279L14.616 5.12514L14.5875 5.29598C14.5686 5.41935 14.5401 5.53325 14.5306 5.64718C14.5021 5.66612 14.5116 5.72311 14.5021 5.77055C14.4926 5.83697 14.4832 5.85599 14.4736 5.9129C14.4641 5.99834 14.4262 6.12171 14.4262 6.20715C14.4072 6.28308 14.3977 6.3495 14.3787 6.44441C14.3597 6.53928 14.3407 6.61526 14.3407 6.71964C14.3123 6.7576 14.2743 7.03283 14.2648 7.12774C14.2553 7.19416 14.2363 7.45992 14.2553 7.52638C14.2743 7.58328 14.2363 7.54532 14.2838 7.57386C14.2363 7.70669 14.4071 8.03891 14.4831 8.17179C14.5305 8.24772 14.4736 8.20024 14.5495 8.23825C14.54 8.28568 14.54 8.24772 14.5495 8.28568C14.5495 8.30467 14.5685 8.32365 14.578 8.34263L15.0336 8.95955C15.0715 8.988 15.0051 8.95955 15.0715 8.988C15.0715 9.0449 15.2993 9.3107 15.3468 9.34867L15.6884 9.7473C15.6884 9.75682 15.6695 9.75682 15.7169 9.82323L16.144 10.3547L16.3813 10.649C16.4477 10.7344 16.4193 10.7155 16.4762 10.7439C16.4857 10.8008 16.6186 10.9622 16.6565 11.0287C16.7324 11.1425 16.7989 11.3039 16.8558 11.3323C16.8369 11.3893 16.8463 11.3513 16.8748 11.4178C16.8937 11.4463 16.8937 11.4557 16.9127 11.5032L17.0361 11.8544C17.0741 11.9968 17.0456 12.0062 17.093 12.0442C17.0456 12.1581 17.0741 12.329 17.0741 12.4523C17.0646 12.5283 17.0551 12.5472 17.0551 12.6422C17.0362 12.6706 16.9697 13.1357 16.9697 13.2116C16.9412 13.2401 16.9697 13.2021 16.9507 13.2496C16.9507 13.2591 16.9412 13.316 16.9412 13.316C16.9317 13.3825 16.9223 13.4204 16.9223 13.4774C16.9033 13.5153 16.8368 13.9045 16.8368 13.9614C16.8179 14.0374 16.7989 14.1513 16.7894 14.2462C16.7799 14.3506 16.7419 14.4455 16.7419 14.5688C16.7229 14.5878 16.7229 14.6353 16.7134 14.6733C16.7039 14.7302 16.7039 14.7587 16.6945 14.8061C16.6755 14.901 16.666 15.0054 16.647 15.0909C16.647 15.1858 16.5995 15.3186 16.5995 15.4325C16.5806 15.461 16.552 15.6509 16.552 15.7078C16.5331 15.8406 16.4951 15.9735 16.4856 16.1159C16.4666 16.1633 16.4192 16.448 16.4192 16.524C16.3907 16.5429 16.3907 16.6188 16.3907 16.6569C16.3812 16.7233 16.3717 16.7517 16.3622 16.8182C16.3433 16.9321 16.3147 17.0554 16.3053 17.1693C16.2863 17.2168 16.2674 17.3212 16.2578 17.3781C16.2389 17.4446 16.2104 17.549 16.2009 17.6249L16.0396 18.0805C15.9541 18.2893 15.8497 18.4127 15.8118 18.5076C15.7929 18.5171 15.6789 18.6784 15.6505 18.7164C15.6125 18.7639 15.603 18.7734 15.565 18.8208L15.4607 18.9347C15.3847 19.0391 15.081 19.2574 14.9387 19.3143C14.8627 19.3428 14.7963 19.3618 14.7203 19.4092C14.6349 19.4188 14.3027 19.5326 13.999 19.5421L13.1543 19.5611C12.993 19.5611 12.8886 19.58 12.7462 19.58L11.6453 19.5801C11.5409 19.5801 11.5219 19.5612 11.427 19.5612C11.3795 19.5612 11.2466 19.5327 11.1897 19.5232C11.1517 19.5137 11.1233 19.5137 11.0758 19.5042C11.0283 19.4947 11.0094 19.4757 10.9524 19.4757C10.6203 19.3998 10.5253 19.2859 10.3545 19.1626C10.326 19.1436 10.345 19.1531 10.326 19.1436C10.2975 19.0961 10.326 19.1341 10.288 19.0867C10.2785 19.0677 10.2691 19.0677 10.2596 19.0487L9.93688 18.4413C9.92737 18.3559 9.89891 18.28 9.8894 18.1945C9.87989 18.0997 9.89891 18.0142 9.87989 17.9288C9.90838 17.8719 9.94635 17.4353 9.95586 17.3308C9.9748 17.179 10.0507 16.8658 10.0413 16.7424C10.0793 16.6855 10.1077 16.4861 10.0982 16.4197L10.1077 16.3912C10.1077 16.3912 10.1932 16.078 10.1741 15.9547C10.2121 15.9072 10.307 15.3473 10.2975 15.2618L10.3355 15.1195C10.345 15.053 10.364 15.0151 10.345 14.9581L10.3639 14.9012C10.3639 14.8917 10.3734 14.8537 10.3734 14.8443C10.3829 14.8063 10.3829 14.7684 10.3924 14.7303C10.4019 14.6544 10.4304 14.569 10.4209 14.4931C10.4683 14.4267 10.5157 14.1135 10.5063 14.0186C10.5443 13.9617 10.6202 13.4301 10.6392 13.3162C10.6961 13.2688 11.8351 13.2973 11.9015 13.2973H13.1923L13.0974 13.8572L13.0594 14.0756C13.0405 14.1799 13.0025 14.2843 13.0025 14.3982H12.9645L12.9646 14.3979Z" fill="#5D6C7B"/>
<path fill-rule="evenodd" clip-rule="evenodd" d="M31.8516 8.24801L31.9275 9.44392C31.937 9.51038 31.937 9.55781 31.937 9.65273C31.937 9.74764 31.9559 9.75711 31.9559 9.85202C31.9559 10.1178 32.0034 10.393 32.0034 10.6682L32.0319 11.0574C32.0508 11.1997 32.0508 11.3326 32.0508 11.475C32.0508 11.5889 32.0793 11.7502 32.0888 11.8641L32.1173 12.4526C32.1173 12.5475 32.1362 12.5665 32.1362 12.6519L32.1837 13.4681C32.1837 13.563 32.2026 13.5725 32.2026 13.6674C32.2026 13.9047 32.2311 14.0186 32.2311 14.2748L32.2691 14.6829L30.5797 14.6829L30.8929 13.0694C30.9404 12.7942 31.0069 12.5379 31.0543 12.2626C31.0732 12.1298 31.1017 12.0064 31.1302 11.864C31.1587 11.7217 31.1871 11.5983 31.2062 11.4559L31.5193 9.84247C31.5763 9.57675 31.6143 9.30153 31.6807 9.03573L31.7946 8.43775C31.8041 8.39979 31.8041 8.39032 31.8136 8.33337L31.842 8.22899L31.8515 8.24793L31.8516 8.24801ZM41.0009 11.0763H39.3589C39.2925 11.0763 39.321 11.0194 39.321 10.9435L39.5108 7.93482C39.5108 7.83991 39.5297 7.83044 39.5297 7.74499L39.5867 6.73896C39.5961 6.6725 39.5961 6.61559 39.5961 6.53962C39.5961 6.36882 39.6436 5.94169 39.6436 5.74239C39.6436 5.64752 39.6626 5.62849 39.6626 5.54309L39.6815 5.13499C39.691 5.02109 39.71 4.85025 39.71 4.72688H41.4659C41.9499 4.72688 41.8075 5.08755 41.8075 5.46721L41.5892 8.86497C41.5892 8.9409 41.5987 9.00732 41.5892 9.08329C41.5418 9.51038 41.5418 10.0609 41.4943 10.4784C41.4659 10.7347 41.5702 11.0669 41.0008 11.0669V11.0764L41.0009 11.0763ZM29.5167 19.9219C29.5547 19.7416 29.5927 19.5423 29.6306 19.362C29.6686 19.1626 29.7066 18.9823 29.7446 18.783C29.7825 18.5932 29.8205 18.4034 29.8585 18.2041C29.8964 18.0143 29.9344 17.815 29.9818 17.6346L32.4875 17.6346C32.4875 17.7959 32.5349 18.0522 32.5349 18.2136C32.5444 18.4983 32.5918 18.7925 32.6014 19.0772C32.6109 19.2671 32.6488 19.4664 32.6488 19.6657C32.6488 19.7511 32.6393 19.9219 32.7153 19.9219H38.7041C38.78 19.9219 38.7516 19.7891 38.7705 19.5992C38.7895 19.362 38.7895 19.1057 38.818 18.8684C38.8275 18.8115 38.818 18.7451 38.818 18.6881L38.8844 17.7675C38.9034 17.5967 38.894 17.3784 38.9224 17.2075C38.9509 17.0272 38.9413 16.8374 38.9604 16.6475C38.9699 16.5906 38.9604 16.5336 38.9699 16.4672L39.0648 14.9961C39.0648 14.9201 39.0648 14.8727 39.0743 14.7968C39.1028 14.588 39.1217 14.2558 39.1217 14.047H39.5583C39.6247 14.047 39.6152 14.1325 39.6342 14.1894L40.1183 16.2204C40.1752 16.4577 40.2416 16.733 40.2986 16.9702C40.4885 17.7105 40.6688 18.4413 40.8301 19.1911L40.963 19.7511C40.9819 19.8175 40.9725 19.9124 41.0389 19.9124H44.8068C44.8068 19.827 44.7404 19.6372 44.7119 19.5423L44.3228 18.0901C44.1709 17.4732 43.9811 16.8658 43.8293 16.2489C43.6774 15.6415 43.4876 15.0246 43.3452 14.4172C43.3167 14.2938 43.2693 14.1704 43.2408 14.047C43.7059 14.047 44.0571 13.9236 44.3133 13.7148C44.7404 13.3732 45.0061 12.8512 44.9967 12.2722L45.2055 8.95037C45.2244 8.84599 45.215 8.71311 45.2339 8.6182L45.2719 7.94429C45.2719 7.86836 45.2814 7.84942 45.2908 7.79243C45.3004 7.72601 45.2908 7.67853 45.3004 7.61212C45.3288 7.45078 45.3193 7.27994 45.3289 7.11857L45.3763 6.45422C45.3858 6.29284 45.3858 6.10302 45.4048 5.94169L45.4617 4.93565H46.5911C46.5911 5.24884 46.5436 5.55256 46.5436 5.86576L46.4771 6.79586C46.4582 6.95719 46.4677 7.10906 46.4582 7.27039L46.3918 8.20049C46.3918 8.37134 46.3823 8.53267 46.3633 8.67502L46.1355 12.4145C46.1166 12.5473 46.1166 12.7466 46.1071 12.8796C46.1071 12.965 46.0881 12.9935 46.0881 13.0979L45.7844 18.0332C45.7749 18.1756 45.7464 18.3464 45.7464 18.4888L45.6895 19.4284C45.6705 19.5707 45.661 19.7416 45.661 19.9029H49.3815C49.4575 19.9029 49.429 19.7985 49.429 19.7131C49.429 19.5612 49.467 19.4094 49.467 19.2386L49.5429 18.0617C49.5619 17.9383 49.5714 17.739 49.5714 17.5966C49.5714 17.5112 49.5903 17.4732 49.5903 17.3593C49.5903 17.2454 49.6093 17.217 49.6093 17.1221C49.6093 16.9987 49.6188 16.7804 49.6378 16.657C49.6662 16.4956 49.6473 16.3343 49.6662 16.1729C49.6757 16.0306 49.6947 15.8693 49.6947 15.7174L49.7327 15.2429C49.7327 15.1385 49.7422 15.1005 49.7516 15.0246L49.7896 14.2937C49.8086 14.0185 49.8465 13.6389 49.8561 13.3636L49.9035 12.4145C49.913 12.2722 49.9415 12.1108 49.9415 11.959C49.9415 11.7976 49.97 11.6363 49.9795 11.4844C49.989 11.1522 50.0174 10.8675 50.0269 10.5353L50.3591 5.38168C50.3686 5.29624 50.3686 5.22982 50.3686 5.1349C50.3686 5.04946 50.3876 5.01154 50.3876 4.89764H52.8552C52.7888 4.62242 52.7413 4.33768 52.6749 4.04347L52.4186 2.76216C52.3901 2.6103 52.3617 2.47742 52.3332 2.3256C52.3047 2.19272 52.2762 2.04086 52.2477 1.90798C52.2192 1.75612 52.1718 1.61373 52.1718 1.46191H45.3382C45.3288 1.52837 45.3098 1.57585 45.2908 1.63276C45.2339 1.79409 45.1579 1.97444 45.12 2.13578H45.082C45.0631 2.06932 44.9965 2.02184 44.9491 1.9744C44.8447 1.87002 44.7214 1.8036 44.598 1.73714C44.2848 1.54731 43.7912 1.46191 43.3736 1.46191H36.2174C36.2174 1.7182 36.1794 1.9175 36.1794 2.15476C36.1794 2.23073 36.1699 2.25918 36.1699 2.30662C36.1604 2.37308 36.1699 2.42999 36.1604 2.48698C36.1509 2.58185 36.1414 2.73375 36.1319 2.82866C36.1224 2.88557 36.1319 2.94256 36.1319 2.99946L36.075 3.87267C36.0465 4.08147 36.037 4.65095 36.0181 4.91667L35.9896 5.4292C35.9896 5.60951 35.9516 5.76137 35.9516 5.93218L35.8472 7.48871C35.8377 7.77345 35.7903 8.06766 35.7997 8.3524C35.7997 8.63714 35.7618 8.93135 35.7523 9.21608L35.6194 11.2661C35.6194 11.6742 35.553 12.0918 35.553 12.5H35.534C35.534 12.1583 35.4107 11.5129 35.3822 11.1332L35.3537 10.9055C35.3442 10.8106 35.3442 10.7631 35.3347 10.6777L35.012 7.9538C34.9266 7.35583 34.8887 6.72944 34.7937 6.14098L34.7368 5.68544L34.2528 1.58532C34.2338 1.41448 34.2148 1.47143 33.8541 1.47143L30.2855 1.47138L29.6401 4.13834C29.1371 6.14094 28.672 8.15302 28.169 10.1651C28.1121 10.3835 28.0551 10.6112 28.0076 10.8295L26.9541 15.1669L26.8687 15.5086L25.8911 19.5232C25.8816 19.5517 25.8057 19.8554 25.8057 19.8554C25.8152 19.9029 25.8057 19.8839 25.8626 19.8839H29.5167V19.9219L29.5167 19.9219Z" fill="#5D6C7B"/>
</g>
<defs>
<clipPath id="clip0_377_4002">
<rect width="51.6121" height="21.3832" fill="white"/>
</clipPath>
</defs>
</svg>
