<svg width="11" height="13" viewBox="0 0 11 13" fill="none" xmlns="http://www.w3.org/2000/svg">
<path d="M0.178335 4.61978H2.47237V11.9963H0.178335V4.61978ZM1.3294 0.955811C1.59233 0.955811 1.84936 1.03377 2.06798 1.17985C2.2866 1.32593 2.45699 1.53356 2.55761 1.77648C2.65823 2.01939 2.68456 2.28669 2.63326 2.54456C2.58197 2.80244 2.45535 3.03932 2.26943 3.22524C2.08351 3.41116 1.84663 3.53778 1.58875 3.58907C1.33088 3.64037 1.06358 3.61404 0.820667 3.51342C0.577751 3.4128 0.370128 3.24241 0.224051 3.02379C0.0779745 2.80517 0 2.54814 0 2.28521C0 1.93263 0.140063 1.5945 0.389374 1.34518C0.638686 1.09587 0.976822 0.955811 1.3294 0.955811Z" fill="#BDBDBD"/>
<path d="M3.89083 4.61973H6.08758V5.62488C6.31001 5.25252 6.628 4.94644 7.00856 4.73835C7.38912 4.53025 7.8184 4.42772 8.25192 4.44139C10.5784 4.44139 10.9999 5.96534 10.9999 7.95134V12.0044H8.71396V8.41338C8.71396 7.60277 8.71396 6.45981 7.52236 6.45981C6.33077 6.45981 6.14433 7.39202 6.14433 8.35665V12.0044H3.8584L3.89083 4.61973Z" fill="#BDBDBD"/>
</svg>
