<svg width="195" height="53" viewBox="0 0 195 53" fill="none" xmlns="http://www.w3.org/2000/svg">
<path d="M0.355851 15.2936C0.727033 9.07588 0.912624 5.96703 3.65893 3.27017C6.40524 0.573304 9.35714 0.450844 15.2609 0.205926C18.2708 0.081063 21.8546 0 26.087 0C30.3697 0 33.9883 0.0830041 37.0202 0.210403C42.8751 0.456424 45.8025 0.579435 48.5478 3.27995C51.2931 5.98046 51.4726 9.04797 51.8316 15.183C52.0306 18.5841 52.1739 22.3355 52.1739 26.087C52.1739 29.0104 52.0603 32.1611 51.8948 35.1989C51.5009 42.4304 51.304 46.0462 48.5699 48.7577C45.8359 51.4692 42.2939 51.6327 35.2099 51.9598C32.4044 52.0893 29.3303 52.1739 26.087 52.1739C22.804 52.1739 19.6944 52.0872 16.8613 51.955C9.82175 51.6265 6.30197 51.4623 3.56859 48.7461C0.83522 46.0299 0.645819 42.4547 0.267016 35.3045C0.108145 32.3057 0 29.1422 0 26.087C0 22.4907 0.149828 18.7447 0.355851 15.2936Z" fill="url(#paint0_linear_490_2092)"/>
<path d="M36.0961 29.2876C35.6688 29.7227 35.4725 30.3521 35.5698 30.9694L37.0364 39.4999C37.1601 40.2229 36.8698 40.9546 36.294 41.3725C35.7298 41.8059 34.9792 41.858 34.3638 41.5112L27.0571 37.506C26.803 37.3638 26.5209 37.2875 26.2322 37.2789H25.7852C25.6301 37.3031 25.4783 37.3552 25.3397 37.4349L18.0314 41.4592C17.6701 41.6499 17.2609 41.7175 16.86 41.6499C15.8834 41.4557 15.2317 40.4778 15.3918 39.4462L16.86 30.9156C16.9574 30.2932 16.7611 29.6603 16.3338 29.2182L10.3765 23.1497C9.87832 22.6417 9.7051 21.8788 9.93276 21.1905C10.1538 20.5039 10.718 20.0028 11.3994 19.8901L19.5986 18.64C20.2222 18.5724 20.7699 18.1736 21.0504 17.5841L24.6633 9.79909C24.7491 9.6257 24.8596 9.46619 24.9933 9.33095L25.1418 9.20958C25.2193 9.11942 25.3084 9.04487 25.4074 8.98418L25.5872 8.91483L25.8676 8.79346H26.5622C27.1825 8.86108 27.7286 9.25119 28.014 9.83377L31.6747 17.5841C31.9387 18.151 32.4518 18.5446 33.044 18.64L41.2433 19.8901C41.9361 19.9941 42.5152 20.4969 42.7445 21.1905C42.9606 21.8858 42.7742 22.6486 42.2661 23.1497L36.0961 29.2876Z" fill="white"/>
<path d="M161.217 17.7389C168.521 17.7389 170.608 22.4346 170.608 29.2172H157.043C157.314 32.1458 159.216 33.3911 161.217 33.3911C163.522 33.3911 164.348 32.8694 165.391 31.3042H170.608C169.32 35.99 165.187 37.565 161.217 37.565C155.796 37.565 151.826 33.7898 151.826 28.1737C151.826 22.5576 154.434 17.7389 161.217 17.7389ZM161.217 21.9129C159.148 21.9129 157.043 23.4781 157.043 26.0868H165.391C165.391 23.4781 163.286 21.9129 161.217 21.9129Z" fill="black"/>
<path d="M134.087 17.7389C139.304 17.7389 142.435 21.9129 142.435 27.652C142.435 33.3911 139.304 37.565 134.087 37.565C131.478 37.565 129.913 37.0433 127.826 35.4781V45.9129H122.087V17.7389H127.826V19.8259C129.913 18.2607 131.713 17.7389 134.087 17.7389ZM133.043 33.3911C136.812 33.4216 137.739 30.305 137.739 27.652C137.739 25.0334 136.695 21.9129 133.043 21.9129C129.391 21.9129 128.348 25.0334 128.348 27.652C128.348 30.305 129.275 33.3606 133.043 33.3911Z" fill="black"/>
<path d="M113.74 17.7389C117.742 17.7389 120 20.9481 120 25.565V37.565H114.762V27.1302C114.762 25.063 113.823 22.9563 111.652 22.9563C109.549 22.9563 108.522 24.5117 108.522 27.1302V37.565H103.304V27.2386C103.304 25.1713 102.345 22.9563 100.174 22.9563C98.0711 22.9563 97.0435 24.5117 97.0435 27.1302V37.565H90.7826V17.7389H97.0435V19.8259C98.4002 18.1376 100.057 17.7389 102.261 17.7389C104.805 17.7389 105.391 17.7389 107.478 19.8259C109.565 17.7389 111.162 17.7389 113.74 17.7389Z" fill="black"/>
<path d="M82.447 37.565V17.7389H88.6957V37.565H82.447Z" fill="black"/>
<path d="M89.0587 12.7332C89.0587 10.8037 87.6003 9.39111 85.5652 9.39111C83.598 9.39111 82.0718 10.8037 82.0718 12.7332C82.0718 14.6971 83.598 16.1097 85.5652 16.1097C87.6003 16.1097 89.0587 14.6971 89.0587 12.7332Z" fill="url(#paint1_linear_490_2092)"/>
<path d="M70.3575 22.1049C77.0053 23.5519 80.3476 25.3091 80.3476 30.2361C80.3476 36.1278 74.7667 37.565 70.968 37.565C63.7097 37.565 60.9963 33.3173 60.5215 29.2172H66.7824C67.325 31.2156 67.9494 32.2689 70.968 32.2689C73.3083 32.2689 74.0867 31.5109 74.0867 30.2361C74.0867 28.8235 72.9352 28.7201 68.9669 27.8588C65.1003 27.0319 60.5215 25.3435 60.5215 20.3476C60.5215 15.0416 65.8465 12.5215 70.3575 12.5215C77.0731 12.5215 79.9406 16.7004 80.3476 20.8694H74.0867C73.7475 19.4567 73.003 18.2115 70.2896 18.2115C67.7119 18.2115 66.9318 19.2796 66.9318 20.3132C66.9318 21.4502 68.0172 21.588 70.3575 22.1049Z" fill="black"/>
<path d="M144 37.565V12.5215H150.288V37.565H144Z" fill="black"/>
<path d="M194 37.5657H186.5L182.5 29L178.349 37.5657H170.5L177.5 25L170.5 12.522H178.349L182.5 21L186.74 12.522H194L187.5 25L194 37.5657Z" fill="black"/>
<path d="M194 37.5655H186.5L182.5 29L180.5 25L182.5 21L186.738 12.522H194.087L187.5 25L194 37.5655Z" fill="url(#paint2_linear_490_2092)"/>
<defs>
<linearGradient id="paint0_linear_490_2092" x1="26.087" y1="0" x2="62.3102" y2="8.38497" gradientUnits="userSpaceOnUse">
<stop stop-color="#FE6546"/>
<stop offset="1" stop-color="#FF9E0D"/>
</linearGradient>
<linearGradient id="paint1_linear_490_2092" x1="115.565" y1="9.39111" x2="169.724" y2="47.1805" gradientUnits="userSpaceOnUse">
<stop stop-color="#FE6546"/>
<stop offset="1" stop-color="#FF9E0D"/>
</linearGradient>
<linearGradient id="paint2_linear_490_2092" x1="187.293" y1="12.522" x2="197.078" y2="13.7507" gradientUnits="userSpaceOnUse">
<stop stop-color="#FE6546"/>
<stop offset="1" stop-color="#FF9E0D"/>
</linearGradient>
</defs>
</svg>
