<svg width="94" height="101" viewBox="0 0 94 101" fill="none" xmlns="http://www.w3.org/2000/svg">
<path d="M80.2535 50.756C79.3811 52.3026 79.3041 54.222 80.0431 55.886L90.5979 78.792C91.4909 80.7339 91.2268 83.0119 89.924 84.6215C88.6654 86.2664 86.5954 86.978 84.6047 86.4653L61.0519 80.6937C60.2308 80.4848 59.3805 80.4825 58.5627 80.6755L57.3064 81.0121C56.8889 81.1972 56.5017 81.4579 56.1724 81.7867L38.6707 98.6164C37.7992 99.4252 36.7006 99.9236 35.523 100.035C32.6322 100.224 30.0635 97.9622 29.7352 94.938L27.4275 69.8222C27.2316 67.9969 26.2026 66.3635 24.6685 65.4407L3.35179 52.8457C1.56863 51.791 0.506512 49.7742 0.627128 47.6653C0.73051 45.5663 1.93806 43.7311 3.76767 42.9009L25.865 33.2088C27.5663 32.5489 28.8047 31.0141 29.1482 29.1436L33.4294 4.51146C33.5397 3.95885 33.73 3.42665 34.0035 2.94538L34.3292 2.49198C34.4791 2.17983 34.6732 1.90291 34.9056 1.65757L35.3586 1.32697L36.0551 0.774193L38.0068 0.25124C39.8009 -0.0254906 41.6296 0.661383 42.8709 2.08622L59.003 21.1441C60.1723 22.5411 61.9109 23.2626 63.6471 23.0851L87.63 20.4301C89.6555 20.2012 91.6619 21.1804 92.8293 22.9598C93.961 24.754 94.0125 27.0417 92.9625 28.8346L80.2535 50.756Z" fill="url(#paint0_linear_231_6387)"/>
<defs>
<linearGradient id="paint0_linear_231_6387" x1="37.3644" y1="0.423366" x2="105.737" y2="-1.92448" gradientUnits="userSpaceOnUse">
<stop stop-color="#FE6546"/>
<stop offset="1" stop-color="#FF9E0D"/>
</linearGradient>
</defs>
</svg>
