<svg width="13" height="13" viewBox="0 0 13 13" fill="none" xmlns="http://www.w3.org/2000/svg">
<path d="M7.19824 8.43848H0.46582V6.38184H7.13672C7.68164 6.38184 8.11523 6.29688 8.4375 6.12695C8.76562 5.95703 9.00293 5.72266 9.14941 5.42383C9.2959 5.11914 9.36914 4.77344 9.36914 4.38672C9.36914 4.00586 9.29004 3.65723 9.13184 3.34082C8.97949 3.01855 8.74219 2.76074 8.41992 2.56738C8.10352 2.36816 7.69922 2.26855 7.20703 2.26855H4.87793V13H2.24121V0.203125H7.19824C8.20605 0.203125 9.06738 0.381836 9.78223 0.739258C10.5029 1.09668 11.0566 1.58887 11.4434 2.21582C11.8301 2.84277 12.0234 3.56055 12.0234 4.36914C12.0234 5.21875 11.8242 5.94824 11.4258 6.55762C11.0332 7.16699 10.4766 7.63281 9.75586 7.95508C9.04102 8.27734 8.18848 8.43848 7.19824 8.43848ZM7.68164 9.15918V11.2158H0.46582V9.15918H7.68164Z" fill="#18130C"/>
</svg>
