<svg width="363" height="363" viewBox="0 0 363 363" fill="none" xmlns="http://www.w3.org/2000/svg">
<g clipPath="url(#clip0_250_2353)">
<path d="M322.842 160.26C322.787 160.155 322.748 160.041 322.728 159.924C322.524 159.326 322.101 155.382 320.794 149.696C320.616 149.173 320.451 148.687 320.286 148.201C320.12 147.715 319.803 146.78 319.549 146.032C314.951 127.869 306.807 110.795 295.587 95.7898C294.379 94.1987 293.083 92.4707 291.888 91.0418C285.803 83.5926 278.985 76.7725 271.538 70.6841C267.884 67.6652 264.061 64.8571 260.088 62.2734C257.614 60.6399 255.082 59.0815 252.493 57.5985L252.368 57.4744L252.054 57.2889C251.603 57.0668 251.177 56.7946 250.714 56.5352C249.06 55.596 247.244 54.6703 245.327 53.6952C244.376 53.2263 243.424 52.7574 242.397 52.314L241.007 51.6604L239.831 51.143L238.904 50.7489C232.978 48.174 226.887 45.9952 220.672 44.2266C219.046 43.7368 217.808 43.407 217.082 43.2365L215.944 42.9561L214.844 42.6629L214.619 42.7392L212.806 42.3129L212.619 42.3764L212.395 42.4527L211.145 42.2104L209.519 41.8454L208.094 41.5792L207.294 41.4341L207.107 41.4976L206.846 41.5866L206.396 41.4894L204.808 41.2366L203.483 41.0197L202.259 40.8521L201.471 40.7444L199.984 40.541L198.897 40.4101L197.46 40.2313L197.236 40.3076L196.124 40.2267L195.474 40.1557L194.7 40.0854L194.475 40.1616L194.064 40.3014L192.902 40.1959L192.14 40.163L190.853 40.0582L189.704 39.9902L189.067 39.9565L188.056 39.925L187.081 39.8809L185.483 39.8404L184.009 39.7992L183.56 39.9517L182.224 39.9472L180.189 39.9717L178.828 40.0173L177.293 40.0389L175.695 40.1233L174.708 40.1666L173.81 40.2219L173.174 40.438L172.4 40.4925C169.542 40.6718 166.684 40.976 163.852 41.3549L162.018 41.603L160.109 41.8766L158.999 42.0455L156.292 42.5486L155.395 42.8536L151.516 43.7132L149.77 44.0982L149.397 44.2253L146.741 44.8779L144.797 45.5388L141.32 46.7207C137.32 48.0805 133.319 49.4404 129.357 50.7875C126.964 51.6009 124.959 52.5743 122.382 53.8258C111.685 58.7334 101.638 64.9504 92.4734 72.3342L89.7397 74.5981L89.3285 74.7379C87.7881 76.0957 86.0983 77.5042 84.7703 78.8732L84.3852 79.2126L84.1609 79.2889L82.9316 80.4574L80.5359 82.8567L79.2453 84.2129C78.3518 85.1423 77.5203 86.0088 76.7763 86.8873L76.1931 87.5026C72.174 91.9968 69.7708 95.2327 69.5973 95.4585C68.383 97.0391 67.1694 98.7445 65.9932 100.437L63.406 104.236L63.1442 104.325L63.2078 104.512C61.4379 107.157 59.6328 110.19 57.6438 113.785C56.742 115.426 55.829 117.28 54.9413 119.208L52.6591 123.904L50.3694 129.437C49.6433 131.227 48.9666 132.917 48.3519 134.544C46.9952 138.217 45.846 141.963 44.9097 145.765C43.9824 149.417 43.2809 153.242 42.4545 157.068C41.6612 161.385 41.1242 165.745 40.8463 170.126C40.1434 177.818 40.1225 185.557 40.7838 193.252C42.0075 208.321 45.6233 223.099 51.4953 237.03C54.3814 243.946 57.8332 250.612 61.8155 256.961C63.4354 259.717 65.1933 262.391 67.0825 264.971C69.3113 268.092 71.777 271.174 74.3796 274.168C74.5194 274.579 74.9582 274.889 75.2976 275.274C78.1559 278.764 81.2637 282.042 84.5962 285.083C86.8684 287.105 89.8067 289.86 92.1281 291.781C94.4496 293.703 97.4986 296.17 100.006 297.903C102.715 299.86 103.894 300.752 106.388 302.198C109.496 304.228 112.629 306.082 115.748 307.774C116.776 308.342 117.79 308.873 118.842 309.392L122.286 311.057L124.552 312.08L124.978 312.227L128.208 313.631L129.034 313.976C132.614 315.428 137.169 317.175 142.173 318.643L146.513 319.879L147.989 320.294L150.59 320.953L152.391 321.342L153.066 321.488L154.041 321.657L155.704 322.009L157.304 322.299C163.228 323.449 169.223 324.198 175.248 324.54L175.811 324.6L177.409 324.64L178.758 324.682L181.955 324.763L186.687 324.697C188.023 324.702 189.621 324.617 191.132 324.521L193.328 324.358C195.288 324.234 197.896 323.931 199.83 323.733C201.765 323.534 204.521 323.055 206.518 322.794C210.746 321.982 216.345 320.788 220.522 319.701C224.144 318.762 227.713 317.632 231.216 316.316L233.721 315.465L241.058 312.512L243.523 311.298C245.516 310.413 247.483 309.452 249.437 308.454L250.447 308.111C253.02 306.806 255.525 305.37 257.951 303.808L261.073 301.829C264.101 299.964 267.012 297.916 269.79 295.696L270.089 295.594C272.377 293.858 274.626 292.009 276.812 290.098L278.241 288.903L280.6 286.641L282.525 284.819L286.1 281.352C288.739 278.752 291.213 275.989 293.506 273.079L293.73 273.003L294.077 272.551C295.887 270.268 298.006 267.545 300.421 264.222C300.421 264.222 300.421 264.222 300.358 264.035C304.262 258.559 307.722 252.781 310.706 246.754C311.644 244.851 312.569 242.91 313.518 240.794L313.37 236.924L314.834 233.256L315.277 232.105C316.014 230.103 316.739 228.063 317.364 225.974C318.333 223.059 319.252 220.119 319.849 217.58C320.972 213.278 321.969 208.727 322.765 204.077C323.321 201.185 323.721 198.265 323.962 195.329C324.257 192.393 324.489 189.395 324.57 186.323C324.629 185.636 324.65 184.961 324.671 184.287C324.708 180.103 324.671 175.945 324.469 171.426L324.33 171.015L324.228 170.716C323.758 167.372 323.363 163.878 322.842 160.26Z" fill="url(#paint0_radial_250_2353)"/>
<mask id="mask0_250_2353" style="mask-type:luminance" maskUnits="userSpaceOnUse" x="38" y="38" width="286" height="287">
<path d="M38.5289 187.846L38.4273 187.547C38.2239 186.949 38.1628 182.966 38.3403 177.109C38.175 176.623 38.3964 176.047 38.3935 175.548C38.3905 175.048 38.4593 174.024 38.5296 173.249C39.5737 154.598 44.2767 136.334 52.3707 119.498C53.2216 117.708 54.16 115.929 55.0985 114.15C59.6333 105.65 65.0295 97.6387 71.202 90.2419C74.1921 86.5716 77.3899 83.0756 80.7797 79.771C82.9152 77.7104 85.1008 75.6745 87.362 73.7381L87.7732 73.5983L88.1096 73.484L89.2649 72.4657C90.7185 71.2208 92.2969 69.9753 94.0122 68.6415L94.2365 68.5652C95.0567 67.911 95.9271 67.2815 96.8722 66.6266L98.1157 65.7451L99.1475 64.9773L99.9932 64.3979C105.322 60.7691 110.879 57.487 116.63 54.5718L119.992 52.9285L121.076 52.5599L122.123 52.2041L122.534 52.0643L124.291 51.467L125.113 51.1874L126.31 50.7807L127.88 50.2469L129.263 49.7767L130.983 49.192L132.478 48.6837L143.058 45.0871L144.18 44.7058L144.89 44.4643L146.124 44.045L147.171 43.6891L147.806 43.473L148.778 43.1426L149.676 42.8376L151.171 42.3292L152.592 41.8463L153.04 41.6938L154.375 41.4486L156.333 41.0749L157.705 40.817L159.215 40.5958L160.799 40.3491L161.797 40.2183L162.62 39.9387L163.255 39.7226L163.966 39.4812C166.811 39.1396 169.681 38.8729 172.539 38.6936L174.374 38.5703L176.272 38.5091L177.42 38.4523L180.205 38.4233L181.154 38.3927L184.975 38.4699L186.736 38.4969L187.035 38.3952L189.758 38.5539L191.844 38.6788C193.418 38.7693 194.667 38.8868 195.492 38.9818C199.79 39.3559 203.852 40.0185 208.002 40.818C210.477 41.2279 212.69 41.7267 215.442 42.4596C226.882 45.2853 237.93 49.5144 248.332 55.0509C249.384 55.5691 250.411 56.1374 251.451 56.7431L251.865 56.9778C253.619 57.9664 255.399 59.0297 257.116 60.1558L257.529 60.3906L257.593 60.5775C258.069 60.8744 258.545 61.1712 258.997 61.5182C259.449 61.8651 260.927 62.7804 261.805 63.3996L263.335 64.4644L266.307 66.582L266.972 67.065C271.801 70.72 274.776 73.4619 274.989 73.598C276.496 74.9627 278.015 76.3646 279.51 77.8167C281.004 79.2688 281.632 79.8894 282.725 80.8944L282.814 81.1561L282.89 81.3804C285.126 83.6647 287.514 86.2728 290.13 89.4289L290.232 89.728C291.439 91.1943 292.698 92.8101 293.944 94.5134C295.19 96.2167 296.109 97.4475 297.078 98.7029L300.267 103.666C301.313 105.271 302.309 106.851 303.216 108.294C305.267 111.64 307.114 115.107 308.747 118.675C310.429 122.274 311.999 125.911 313.343 129.249L313.444 129.548C315.108 133.565 316.509 137.687 317.638 141.885C319.806 149.304 321.313 156.9 322.143 164.585C323.023 172.112 323.273 179.7 322.89 187.269C322.199 202.279 319.138 217.085 313.823 231.14C312.767 234.162 311.546 237.125 310.167 240.014C308.564 243.52 306.75 247.015 304.822 250.423L304.13 251.701C301.99 255.679 299.568 259.5 296.881 263.132C295.072 265.54 292.693 268.726 290.81 271.159C288.926 273.593 286.321 276.481 284.224 278.653C281.928 281.102 280.973 282.094 278.787 284.13C276.155 286.693 273.435 289.119 270.664 291.396L267.967 293.522C266.923 294.377 265.816 295.17 264.884 295.863L262.857 297.261L262.446 297.401L259.523 299.353L260.056 300.924C256.823 303.066 252.679 305.6 248.086 308.037L244.065 310.072L242.607 310.567L240.204 311.718L238.447 312.315L237.699 312.569L236.727 312.9L235.157 313.433L233.624 313.955C228.044 316.321 222.311 318.312 216.465 319.913L215.942 320.091L214.446 320.599L213.138 321.044L210.032 321.724L205.368 322.601C204.07 322.833 202.486 323.08 201.001 323.251L198.842 323.526C196.883 323.775 194.287 323.99 192.303 324.164C190.319 324.339 187.597 324.43 185.587 324.529C181.417 324.529 175.51 324.451 171.25 324.19C167.877 323.96 163.392 323.524 160.105 322.932L157.479 322.448L149.853 320.87L147.189 320.149C145.063 319.663 142.95 319.088 140.861 318.464L139.81 318.195C137.334 317.536 134.33 316.43 131.615 315.434L128.198 314.094C124.85 312.827 121.573 311.379 118.382 309.756L118.306 309.532C115.701 308.249 113.22 306.84 110.615 305.432L109.011 304.518L106.241 302.748L104.01 301.338L99.823 298.591C96.7457 296.541 93.789 294.316 90.9676 291.926L90.8914 291.701L90.4644 291.304C88.2304 289.395 85.6697 287.137 82.6312 284.333L82.555 284.109C77.6929 279.468 73.2001 274.456 69.1174 269.117L69.0412 268.893C67.7702 267.239 66.4992 265.586 65.1512 263.584L63.4384 261.121C62.6698 259.965 61.914 258.845 61.2329 257.701L60.6272 256.655C59.5178 254.864 58.3829 252.998 57.2973 251.031C55.7706 248.38 54.3435 245.654 53.243 243.276C51.2962 239.267 49.4601 234.97 47.7974 230.447C46.8443 227.643 45.8911 224.839 45.0269 222.297C44.1627 219.754 43.4069 216.55 42.7147 213.532C42.4986 212.897 42.2826 212.261 42.2535 211.562C41.3677 207.484 40.6561 203.305 40.1307 198.938C40.062 198.795 40.0108 198.644 39.9782 198.489L39.8892 198.227C39.0332 194.973 38.7254 191.491 38.5289 187.846Z" fill="white"/>
</mask>
<g mask="url(#mask0_250_2353)">
<path d="M148.78 62.2849C138.989 58.0226 106.058 65.9225 113.314 97.5712C114.017 100.377 114.926 104.155 115.717 106.972C155.587 102.677 156.349 102.585 165.445 97.1993C175.56 91.133 177.942 80.1054 170.242 74.507C168.022 72.8844 161.721 69.438 150.765 72.7871C154.085 66.2367 150.909 63.3961 148.705 62.3103" fill="#FF3B62"/>
<path d="M235.683 116.112C233.208 114.356 230.311 113.289 227.289 113.019C224.266 112.75 221.226 113.288 218.48 114.578C219.088 97.2302 197.599 90.9396 186.247 101.346C180.994 106.135 175.294 115.621 186.802 142.238C188.372 145.874 190.347 150.458 191.805 154.008C212.383 154.061 227.28 154.085 235.769 147.404C238.051 145.797 239.955 143.712 241.348 141.295C242.742 138.877 243.591 136.185 243.837 133.405C244.084 130.625 243.721 127.826 242.774 125.201C241.827 122.576 240.319 120.189 238.355 118.206C237.554 117.376 236.671 116.628 235.72 115.974" fill="#FF3B62"/>
<path d="M86.2529 107.771C77.2561 104.616 54.9061 146.954 75.2427 190.338L75.752 187.788C78.6223 175.191 82.7147 162.905 87.9712 151.103C77.3245 141.377 83.576 125.906 91.3475 111.962C89.8877 110.32 88.1967 108.9 86.3277 107.746M211.896 185.506C208.821 183.695 205.628 182.091 202.34 180.705C191.647 192.681 176.199 202.812 163.608 198.042C151.018 193.272 149.151 219.431 142.591 229.209C142.182 229.849 141.724 230.463 141.266 231.078C159.141 231.175 176.666 226.115 191.739 216.505C197.101 213.14 223.183 195.89 212.587 186.188L211.947 185.655" fill="#412121"/>
<path d="M163.595 197.88C149.08 190.761 99.9778 160.66 88.0833 151.065C82.8268 162.867 78.7344 175.153 75.8642 187.75C68.0594 223.434 101.854 260.032 133.665 238.041C137.207 235.669 140.238 232.611 142.577 229.047C149.137 219.268 156.205 208.775 163.595 197.88Z" fill="#FF3B62"/>
<path d="M202.489 180.654C135.93 146.311 101.158 119.721 92.087 112.42L91.6108 112.123C91.45 112.386 75.176 134.934 85.3282 149.708C86.588 151.574 156.552 206.238 177.99 199.618C189.769 195.989 202.379 180.942 202.49 180.779" fill="white"/>
</g>
</g>
<defs>
<radialGradient id="paint0_radial_250_2353" cx="0" cy="0" r="1" gradientUnits="userSpaceOnUse" gradientTransform="translate(191.616 203.313) rotate(-5.53517) scale(164.342 164.342)">
<stop stop-color="#F79F40"/>
<stop offset="0.16" stop-color="#F7A542"/>
<stop offset="0.37" stop-color="#F8B44A"/>
<stop offset="0.6" stop-color="#FACE55"/>
<stop offset="0.77" stop-color="#FBE660"/>
<stop offset="0.91" stop-color="#FBF36F"/>
<stop offset="0.93" stop-color="#FBF672"/>
<stop offset="0.95" stop-color="#FBF676"/>
<stop offset="0.96" stop-color="#FBF783"/>
<stop offset="0.98" stop-color="#FCF897"/>
<stop offset="0.99" stop-color="#FDFAB4"/>
<stop offset="1" stop-color="#FDFBC2"/>
</radialGradient>
<clipPath id="clip0_250_2353">
<rect width="286" height="286" fill="white" transform="translate(0 92.0508) rotate(-18.7752)"/>
</clipPath>
</defs>
</svg>
