<svg width="141" height="147" viewBox="0 0 141 147" fill="none" xmlns="http://www.w3.org/2000/svg">
<g clipPath="url(#clip0_252_2497)">
<path d="M77.1404 17.1301C77.3504 17.4501 77.5604 17.7601 77.7504 18.1301C77.9404 18.5001 78.1804 18.9001 78.4004 19.2901C78.6204 19.6801 78.7704 19.9401 78.9404 20.2901C79.1104 20.6401 79.3204 21.1101 79.5104 21.5201C79.7004 21.9301 79.8404 22.2001 79.9904 22.5201C80.1404 22.8401 80.3304 23.3701 80.4904 23.8001C80.6504 24.2301 80.7804 24.5101 80.9104 24.8801C81.0404 25.2501 81.1804 25.7501 81.3204 26.1801C81.4604 26.6101 81.5704 26.9501 81.6804 27.3401C81.7904 27.7301 81.9204 28.2601 82.0304 28.7201C82.1404 29.1801 82.2304 29.4901 82.3204 29.8801C82.4104 30.2701 82.5104 30.8801 82.6104 31.4201C82.6704 31.7801 82.7504 32.1401 82.8104 32.5101C82.8904 33.0701 82.9604 33.6501 83.0204 34.2201C83.0204 34.5501 83.1204 34.8701 83.1504 35.2201C83.2404 36.1301 83.3004 37.0401 83.3404 37.9701L73.3404 34.0701C73.3404 33.1401 73.2404 32.2201 73.1504 31.3201C73.1504 30.9901 73.0604 30.6701 73.0204 30.3201C72.9604 29.7501 72.8904 29.1701 72.8104 28.6001C72.7504 28.2401 72.6704 27.8801 72.6004 27.5201C72.5304 27.1601 72.4304 26.5201 72.3204 25.9801C72.2104 25.4401 72.1304 25.2501 72.0404 24.8801C71.9504 24.5101 71.8204 23.8801 71.6804 23.4401C71.5404 23.0001 71.4604 22.7201 71.3504 22.3701C71.2404 22.0201 71.0704 21.4301 70.9104 20.9801C70.7504 20.5301 70.6304 20.2601 70.4904 19.9101C70.3504 19.5601 70.1704 19.0401 69.9904 18.6201C69.8104 18.2001 69.6704 17.9101 69.5004 17.5601C69.3304 17.2101 69.1404 16.7501 68.9404 16.3501C68.7404 15.9501 68.5804 15.6901 68.4004 15.3501C68.2204 15.0101 67.9804 14.5701 67.7504 14.1901C67.5204 13.8101 67.3504 13.5601 67.1404 13.1901C66.9304 12.8201 66.6804 12.4601 66.4404 12.1101C66.2004 11.7601 65.9904 11.5201 65.7604 11.2201C65.5304 10.9201 65.2604 10.5301 64.9904 10.2201L64.2604 9.3901C63.9804 9.0801 63.7004 8.7501 63.4104 8.4501C63.1204 8.1501 62.8804 7.9301 62.6104 7.6801L61.7204 6.8201C61.4304 6.5701 61.1404 6.3501 60.8504 6.1101C60.5604 5.8701 60.2204 5.5901 59.9004 5.3501C59.5804 5.1101 59.2804 4.9201 58.9704 4.7101C58.6604 4.5001 58.3004 4.2401 57.9704 4.0301C57.6404 3.8201 57.3104 3.6601 56.9704 3.4801C56.6304 3.3001 56.2604 3.0601 55.8904 2.8801C55.5204 2.7001 55.2004 2.5601 54.8904 2.4101C54.5804 2.2601 54.0604 2.0201 53.6304 1.8501L63.6304 5.7501L63.8704 5.8501C64.2204 5.9901 64.5504 6.1601 64.8704 6.3101C65.1904 6.4601 65.5604 6.6101 65.8704 6.7801C66.1804 6.9501 66.5904 7.1701 66.9504 7.3701C67.3104 7.5701 67.6104 7.7301 67.9504 7.9301C68.2904 8.1301 68.6304 8.3901 68.9504 8.6201C69.2704 8.8501 69.5704 9.0201 69.8604 9.2501C70.1504 9.4801 70.5104 9.7601 70.8604 10.0201C71.2104 10.2801 71.4404 10.4801 71.7104 10.7201C71.9804 10.9601 72.3104 11.2901 72.6104 11.5701C72.9104 11.8501 73.1504 12.0801 73.4104 12.3501C73.6704 12.6201 73.9704 12.9701 74.2404 13.2801C74.5104 13.5901 74.7504 13.8301 74.9904 14.1201C75.2304 14.4101 75.5004 14.7901 75.7604 15.1201C76.0204 15.4501 76.2204 15.7101 76.4404 16.0201C76.6604 16.3301 76.9104 16.7701 77.1404 17.1301Z" fill="url(#paint0_radial_252_2497)"/>
<path d="M56.2802 133.73C64.3008 130.72 72.1552 127.286 79.8102 123.44C96.9102 114.76 117.74 101.6 127.1 76.55C127.5 75.46 127.84 74.38 128.17 73.3C128.38 72.62 128.58 71.95 128.76 71.3C128.94 70.65 129.15 69.8 129.32 69.05C129.49 68.3 129.62 67.71 129.75 67.05C129.88 66.39 130.01 65.56 130.12 64.81C130.23 64.06 130.32 63.49 130.39 62.81C130.46 62.13 130.53 61.34 130.58 60.61C130.63 59.88 130.68 59.3 130.7 58.61C130.72 57.92 130.7 57.16 130.7 56.44C130.7 55.72 130.7 55.17 130.7 54.54C130.7 53.91 130.6 53.12 130.54 52.41C130.48 51.7 130.44 51.18 130.36 50.58C130.28 49.98 130.15 49.2 130.03 48.51C129.91 47.82 129.83 47.33 129.71 46.75C129.59 46.17 129.38 45.42 129.21 44.75C129.04 44.08 128.93 43.63 128.76 43.09C128.59 42.55 128.32 41.8 128.08 41.17C127.84 40.54 127.72 40.17 127.51 39.61C127.3 39.05 126.95 38.38 126.66 37.77C126.37 37.16 126.22 36.77 125.97 36.34C125.72 35.91 125.28 35.17 124.97 34.59C124.66 34.01 124.47 33.72 124.19 33.31C123.79 32.72 123.35 32.17 122.92 31.62C122.65 31.26 122.39 30.88 122.1 30.54C121.58 29.93 121.02 29.38 120.47 28.82C120.22 28.57 120 28.3 119.74 28.06C118.917 27.2823 118.045 26.5575 117.13 25.89L116.71 25.62C115.923 25.0548 115.105 24.534 114.26 24.06C113.91 23.86 113.53 23.72 113.17 23.54C112.47 23.19 111.77 22.83 111.03 22.54L121.03 26.44L121.28 26.53C121.93 26.8 122.55 27.13 123.17 27.44C123.53 27.62 123.91 27.77 124.26 27.96C125.11 28.441 125.934 28.965 126.73 29.53L127.13 29.79C128.043 30.4605 128.914 31.1852 129.74 31.96C130 32.2 130.22 32.47 130.47 32.72C131.02 33.28 131.58 33.83 132.1 34.44C132.39 34.78 132.64 35.16 132.92 35.52C133.35 36.07 133.79 36.62 134.19 37.21C134.47 37.62 134.71 38.06 134.97 38.48C135.32 39.06 135.69 39.64 135.97 40.24C136.25 40.84 136.43 41.24 136.65 41.67C136.87 42.1 137.25 42.88 137.51 43.51C137.77 44.14 137.89 44.51 138.08 45.06C138.27 45.61 138.55 46.33 138.76 46.99C138.97 47.65 139.06 48.09 139.21 48.65C139.36 49.21 139.56 49.97 139.71 50.65C139.86 51.33 139.93 51.82 140.03 52.41C140.13 53 140.27 53.78 140.36 54.48C140.45 55.18 140.49 55.7 140.54 56.31C140.59 56.92 140.67 57.72 140.7 58.44C140.73 59.16 140.7 59.7 140.7 60.34C140.7 60.98 140.7 61.78 140.7 62.51C140.7 63.24 140.63 63.81 140.58 64.51C140.53 65.21 140.47 65.98 140.39 66.72C140.31 67.46 140.22 68.04 140.12 68.72C140.02 69.4 139.89 70.21 139.75 70.96C139.61 71.71 139.47 72.3 139.32 72.96C139.17 73.62 138.97 74.46 138.76 75.22C138.55 75.98 138.38 76.56 138.17 77.22C138.05 77.63 137.95 78.03 137.82 78.43C137.59 79.12 137.35 79.8 137.1 80.43C127.74 105.43 106.91 118.64 89.8102 127.32C82.1397 131.173 74.2722 134.621 66.2402 137.65L42.9302 146.16L32.9302 142.26L56.2802 133.73Z" fill="url(#paint1_radial_252_2497)"/>
<path d="M4.46026 32.3102C13.2003 8.85019 34.9203 -4.89982 52.9603 1.65018C65.3203 6.11018 72.7503 18.9002 73.3802 34.0702C83.8602 22.9102 97.9303 17.8702 110.28 22.3302C128.28 28.8302 135.86 53.1302 127.1 76.5902C117.74 101.59 96.9102 114.8 79.8102 123.48C72.1553 127.326 64.3008 130.761 56.2803 133.77L32.9703 142.29L20.8102 120.98C16.6604 113.588 12.9279 105.97 9.63025 98.1602C2.30025 80.6502 -4.90974 57.3602 4.46026 32.3102Z" fill="url(#paint2_radial_252_2497)"/>
<path style="mix-blend-mode:overlay" opacity="0.7" d="M9.63016 98.1202C12.9278 105.93 16.6603 113.548 20.8102 120.94L32.9702 142.25L56.2802 133.73C64.3007 130.721 72.1552 127.286 79.8102 123.44C96.9101 114.76 117.74 101.6 127.1 76.5502C135.86 53.0902 128.33 28.7902 110.28 22.2902C97.9302 17.8302 83.8602 22.8702 73.3802 34.0302C72.7502 18.8602 65.3202 6.03024 52.9602 1.61024C34.9602 -4.89976 13.2002 8.85024 4.44016 32.3102C-4.90984 57.3602 2.30016 80.6502 9.63016 98.1202ZM5.13016 32.5602C12.4602 13.0702 29.3802 -0.289762 45.4602 0.790238C47.9328 0.948169 50.3705 1.45658 52.7002 2.30024C64.3502 6.50024 71.9902 18.6702 72.6302 34.0602L72.7002 35.8002L73.8902 34.5302C82.3102 25.5302 92.8402 20.8002 102.78 21.4602C105.252 21.628 107.688 22.1361 110.02 22.9702C117.08 25.5202 122.67 30.8902 126.19 38.4902C131.19 49.3702 131.3 63.1502 126.39 76.2902C117.13 101.09 96.4502 114.16 79.4602 122.79C71.8299 126.621 64.0023 130.046 56.0102 133.05L33.2802 141.35L21.4602 120.58C17.3217 113.214 13.5992 105.623 10.3102 97.8402C3.03015 80.4802 -4.12984 57.3702 5.13016 32.5602Z" fill="url(#paint3_linear_252_2497)"/>
</g>
<defs>
<radialGradient id="paint0_radial_252_2497" cx="0" cy="0" r="1" gradientUnits="userSpaceOnUse" gradientTransform="translate(61.1395 92.5467) rotate(-175.996) scale(82.9225 82.9224)">
<stop offset="0.03" stopColor="#005A9F"/>
<stop offset="0.52" stopColor="#5423A1"/>
<stop offset="0.71" stopColor="#810D7A"/>
<stop offset="0.77" stopColor="#8C1474"/>
<stop offset="0.89" stopColor="#AB2763"/>
<stop offset="1" stopColor="#CC3C51"/>
</radialGradient>
<radialGradient id="paint1_radial_252_2497" cx="0" cy="0" r="1" gradientUnits="userSpaceOnUse" gradientTransform="translate(143.136 178.297) rotate(-175.996) scale(155.249 155.249)">
<stop offset="0.03" stopColor="#005A9F"/>
<stop offset="0.52" stopColor="#5423A1"/>
<stop offset="0.71" stopColor="#810D7A"/>
<stop offset="0.77" stopColor="#8C1474"/>
<stop offset="0.89" stopColor="#AB2763"/>
<stop offset="1" stopColor="#CC3C51"/>
</radialGradient>
<radialGradient id="paint2_radial_252_2497" cx="0" cy="0" r="1" gradientUnits="userSpaceOnUse" gradientTransform="translate(104.919 188.786) rotate(-175.996) scale(200.971 200.971)">
<stop offset="0.05" stopColor="#008CFF"/>
<stop offset="0.35" stopColor="#9435FF"/>
<stop offset="0.7" stopColor="#D124DC"/>
<stop offset="0.75" stopColor="#D629D1"/>
<stop offset="0.84" stopColor="#E235B2"/>
<stop offset="0.95" stopColor="#F64981"/>
<stop offset="1" stopColor="#FF526B"/>
</radialGradient>
<linearGradient id="paint3_linear_252_2497" x1="106.045" y1="9.43724" x2="-17.0194" y2="139.42" gradientUnits="userSpaceOnUse">
<stop offset="0.08" stopColor="white"/>
<stop offset="1" stopColor="white" stop-opacity="0"/>
</linearGradient>
<clipPath id="clip0_252_2497">
<rect width="140.68" height="146.15" fill="white"/>
</clipPath>
</defs>
</svg>
