<svg width="97" height="98" viewBox="0 0 97 98" fill="none" xmlns="http://www.w3.org/2000/svg">
<g clipPath="url(#clip0_248_2273)">
<path d="M60.9861 84.9307L49.147 89.1241L67.6924 95.8056L79.5246 91.6122L60.9861 84.9307Z" fill="url(#paint0_linear_248_2273)"/>
<path d="M12.084 39.0827C12.1399 38.7542 12.2029 38.4257 12.2798 38.1112C12.3218 37.9295 12.3637 37.7478 12.4127 37.573C12.5036 37.2446 12.6085 36.93 12.7204 36.6155C12.7763 36.4618 12.8253 36.308 12.8812 36.1613C13.0472 35.7343 13.2363 35.3167 13.4476 34.9102C13.4503 34.8893 13.4503 34.8682 13.4476 34.8473C13.5665 34.6237 13.6994 34.421 13.8323 34.2113C13.9651 34.0016 14.0071 33.9038 14.105 33.75C14.2029 33.5963 14.3987 33.3587 14.5525 33.163C14.7064 32.9673 14.7553 32.8834 14.8672 32.7506C14.9791 32.6178 15.2728 32.3173 15.4826 32.1076C15.5665 32.0308 15.6434 31.9329 15.7274 31.856C16.0356 31.5739 16.3601 31.3102 16.6994 31.0663L57.8532 1.74734C58.5678 1.23773 59.349 0.828552 60.1749 0.53125L48.3357 4.72466C47.5098 5.02196 46.7286 5.43114 46.0141 5.94075L4.8882 35.2597C4.55614 35.5043 4.23858 35.768 3.93715 36.0494C3.83225 36.1473 3.74134 36.2591 3.64344 36.3569C3.54554 36.4548 3.25183 36.7413 3.07701 36.951C2.90218 37.1607 2.86722 37.2236 2.76232 37.3564C2.65743 37.4892 2.45463 37.7408 2.31477 37.9504C2.17491 38.1601 2.12596 38.265 2.03505 38.4187C1.94414 38.5725 1.77631 38.8241 1.66442 39.0407C1.66819 39.0592 1.66819 39.0782 1.66442 39.0966C1.45438 39.5037 1.26532 39.9213 1.09799 40.3477C1.04204 40.4944 0.993091 40.6482 0.937147 40.802C0.825259 41.1165 0.720365 41.438 0.629456 41.7595C0.580505 41.9412 0.538548 42.1159 0.49659 42.2976C0.419667 42.6191 0.356728 42.9406 0.300784 43.2691C0.300784 43.4508 0.237846 43.6325 0.209874 43.8142C0.158592 44.1777 0.123628 44.5481 0.10498 44.9255C0.10498 45.0373 0.10498 45.1561 0.10498 45.2679V45.3868C0.10498 45.5475 0.10498 45.7083 0.10498 45.876C0.10498 46.1602 0.10498 46.4468 0.10498 46.7356C0.10498 46.9174 0.10498 47.1061 0.10498 47.2878C0.10498 47.4695 0.104979 47.8329 0.174909 48.1055C0.24484 48.3781 0.223862 48.4899 0.244841 48.6856C0.26582 48.8813 0.328756 49.2237 0.377707 49.4963C0.426658 49.7689 0.454632 49.8807 0.49659 50.0764C0.538548 50.2721 0.622463 50.6215 0.692393 50.8871C0.762323 51.1527 0.790296 51.2715 0.84624 51.4602C0.902184 51.6489 1.02806 52.0193 1.11897 52.2989C1.20988 52.5785 1.23785 52.6553 1.30778 52.8301C1.41967 53.1376 1.55253 53.4381 1.6854 53.7316C1.74834 53.8854 1.80428 54.0322 1.87421 54.1859C2.084 54.6262 2.30778 55.0735 2.57351 55.5069L21.9511 90.0116C23.6402 93.2566 26.3962 95.821 29.7553 97.2732C30.7394 97.6455 31.77 97.8807 32.8183 97.9721C33.1578 98.0011 33.4985 98.0128 33.8392 98.0071C34.1781 98.0037 34.5166 97.9828 34.8532 97.9442C35.526 97.862 36.1874 97.705 36.8253 97.4759L48.6644 93.2825C43.5246 95.1066 37.2588 92.1573 33.7064 85.8392L14.3218 51.3134C14.084 50.8801 13.8602 50.4398 13.6225 49.9995C13.5525 49.8458 13.4966 49.699 13.4267 49.5452C13.3008 49.2447 13.1679 48.9512 13.056 48.6436C12.9861 48.4689 12.9302 48.2872 12.8672 48.1125C12.8043 47.9378 12.6784 47.5534 12.5945 47.2738C12.5106 46.9942 12.4896 46.8964 12.4406 46.7007C12.3917 46.505 12.3008 46.1625 12.2448 45.89C12.1889 45.6174 12.1609 45.4986 12.126 45.3099C12.091 45.1212 12.035 44.7647 11.9931 44.4992C11.9511 44.2336 11.9441 44.1148 11.9232 43.9191C11.9022 43.7234 11.8672 43.3739 11.8532 43.1013C11.8392 42.8288 11.8532 42.7309 11.8532 42.5492C11.8532 42.265 11.8532 41.9785 11.8532 41.6896C11.8532 41.5218 11.8532 41.3611 11.8532 41.2003C11.8532 41.0396 11.8532 40.8928 11.8882 40.7391C11.8882 40.3617 11.9232 39.9912 11.9931 39.6278C12.0211 39.4391 12.049 39.2644 12.084 39.0827Z" fill="url(#paint1_linear_248_2273)"/>
<path d="M94.5106 42.4792L75.126 7.96746C71.0211 0.656953 63.2868 -2.12468 57.8533 1.74724L16.7274 31.0662C11.2938 34.9381 10.2169 44.0098 14.3218 51.3343L33.7064 85.8461C37.8113 93.1566 45.5526 95.9522 50.9791 92.0803L60.9861 84.9515L79.5316 91.633L82.105 69.8902L92.112 62.7614C97.5456 58.8685 98.6085 49.7828 94.5106 42.4792Z" fill="url(#paint2_radial_248_2273)"/>
<path style="mix-blend-mode:overlay" opacity="0.7" d="M94.5106 42.4792L75.126 7.96746C71.0211 0.656953 63.2868 -2.12468 57.8533 1.74724L16.7274 31.0662C11.2938 34.9381 10.2169 44.0098 14.3218 51.3343L33.7064 85.8461C37.8113 93.1566 45.5526 95.9522 50.9791 92.0803L60.9861 84.9515L79.5316 91.633L82.105 69.8902L92.112 62.7614C97.5456 58.8685 98.6085 49.7828 94.5106 42.4792ZM91.8463 62.363L81.6785 69.6106L79.14 90.983L60.9162 84.4133L50.7134 91.6819C48.9441 92.9469 46.7718 93.5189 44.6085 93.2894C40.5176 92.898 36.5945 90.0185 34.119 85.6015L14.7274 51.0897C10.7344 43.9889 11.7554 35.1757 16.9931 31.4436L58.126 2.0897C59.8973 0.822947 62.0716 0.248605 64.2379 0.475237C68.3218 0.866622 72.2449 3.7461 74.7274 8.16316L94.105 42.6749C98.098 49.8107 97.0841 58.6309 91.8463 62.363Z" fill="url(#paint3_linear_248_2273)"/>
<path d="M65.9932 33.7497C62.9792 28.3822 57.3149 26.3344 53.3289 29.1719C50.6016 31.1219 49.3778 34.861 49.8324 38.7399C46.9163 36.6432 43.3988 36.2588 40.6645 38.2017C36.6855 41.0393 35.8953 47.6858 38.9093 53.0604C42.1261 58.7844 47.5666 60.7483 51.9373 61.8036C53.9036 62.2735 55.8952 62.6305 57.9023 62.873L63.7345 63.481L65.7415 57.2887C65.8324 56.9672 66.7345 54.1227 67.4338 50.761C68.4547 45.8477 69.21 39.4737 65.9932 33.7497Z" fill="url(#paint4_linear_248_2273)"/>
</g>
<defs>
<linearGradient id="paint0_linear_248_2273" x1="43.6094" y1="55.5237" x2="67.6418" y2="95.9553" gradientUnits="userSpaceOnUse">
<stop stopColor="#ED1D77"/>
<stop offset="0.01" stopColor="#E91D78"/>
<stop offset="0.23" stopColor="#B72089"/>
<stop offset="0.33" stopColor="#A3218F"/>
<stop offset="0.44" stopColor="#810D7A"/>
<stop offset="0.5" stopColor="#761277"/>
<stop offset="0.57" stopColor="#611A71"/>
<stop offset="0.66" stopColor="#5C1E76"/>
<stop offset="0.77" stopColor="#4F2A85"/>
<stop offset="0.9" stopColor="#3A3E9D"/>
<stop offset="1" stopColor="#2254B8"/>
</linearGradient>
<linearGradient id="paint1_linear_248_2273" x1="28.1989" y1="-3.64671" x2="35.9772" y2="108.764" gradientUnits="userSpaceOnUse">
<stop stopColor="#ED1D77"/>
<stop offset="0.01" stopColor="#E91D78"/>
<stop offset="0.23" stopColor="#B72089"/>
<stop offset="0.33" stopColor="#A3218F"/>
<stop offset="0.44" stopColor="#810D7A"/>
<stop offset="0.54" stopColor="#761277"/>
<stop offset="0.68" stopColor="#611A71"/>
<stop offset="0.72" stopColor="#5C1E76"/>
<stop offset="0.78" stopColor="#4F2A85"/>
<stop offset="0.84" stopColor="#3A3E9D"/>
<stop offset="0.9" stopColor="#2D51B4"/>
<stop offset="0.92" stopColor="#4C49AB"/>
<stop offset="0.94" stopColor="#7E3B9B"/>
<stop offset="0.97" stopColor="#C22985"/>
<stop offset="0.99" stopColor="#ED1D77"/>
</linearGradient>
<radialGradient id="paint2_radial_248_2273" cx="0" cy="0" r="1" gradientUnits="userSpaceOnUse" gradientTransform="translate(56.991 131.013) rotate(5.49688) scale(133.88 133.805)">
<stop offset="0.28" stopColor="#008CFF"/>
<stop offset="0.52" stopColor="#9435FF"/>
<stop offset="0.7" stopColor="#D124DC"/>
<stop offset="0.75" stopColor="#D629D1"/>
<stop offset="0.84" stopColor="#E235B2"/>
<stop offset="0.95" stopColor="#F64981"/>
<stop offset="1" stopColor="#FF526B"/>
</radialGradient>
<linearGradient id="paint3_linear_248_2273" x1="68.2539" y1="-6.59796" x2="38.8021" y2="107.308" gradientUnits="userSpaceOnUse">
<stop offset="0.08" stopColor="white"/>
<stop offset="1" stopColor="white" stop-opacity="0"/>
</linearGradient>
<linearGradient id="paint4_linear_248_2273" x1="74.2058" y1="26.1274" x2="35.1307" y2="69.795" gradientUnits="userSpaceOnUse">
<stop stopColor="#F2F9FF"/>
<stop offset="0.8" stopColor="#C0D6F2"/>
<stop offset="1" stopColor="#B3CDEC"/>
</linearGradient>
<clipPath id="clip0_248_2273">
<rect width="97" height="98" fill="white"/>
</clipPath>
</defs>
</svg>
