<svg width="72" height="72" viewBox="0 0 72 72" fill="none" xmlns="http://www.w3.org/2000/svg">
<g filter="url(#filter0_d_250_2375)">
<path d="M54.2999 23.7166C54.0777 24.8577 54.4268 26.0649 55.2302 26.9442L66.5264 38.9694C67.4829 39.9892 67.7899 41.4579 67.3134 42.7274C66.8716 44.0096 65.7325 44.8811 64.3895 44.9763L48.5609 46.2845C48.0075 46.3254 47.4787 46.5005 47.0104 46.79L46.2994 47.2598C46.0783 47.4614 45.8916 47.7036 45.755 47.976L38.361 62.0554C37.9869 62.7384 37.4073 63.2758 36.6987 63.5895C34.9414 64.307 32.8776 63.4365 32.048 61.6277L25.4193 46.5186C24.92 45.4265 23.9428 44.6263 22.7987 44.3722L6.94818 40.9811C5.62203 40.6967 4.54491 39.6655 4.18368 38.3316C3.81377 37.0074 4.18452 35.6177 5.14965 34.7225L16.8754 24.1188C17.7961 23.356 18.2481 22.1463 18.0747 20.9141L15.6401 4.73706C15.5943 4.37118 15.6025 4.00135 15.6729 3.64586L15.7815 3.29683C15.81 3.07197 15.8734 2.85979 15.967 2.65927L16.1801 2.36002L16.4986 1.87231L17.6032 1.1425C18.6607 0.598229 19.939 0.644842 21.0051 1.27142L34.9708 9.75018C35.9863 10.3745 37.2158 10.4613 38.2579 9.99059L52.6109 3.36304C53.8221 2.8004 55.2714 2.99157 56.3648 3.85356C57.4391 4.73218 57.9442 6.1413 57.6627 7.47211L54.2999 23.7166Z" fill="white"/>
</g>
<defs>
<filter id="filter0_d_250_2375" x="0.0429688" y="0.765625" width="71.4917" height="71.0752" filterUnits="userSpaceOnUse" color-interpolation-filters="sRGB">
<feFlood flood-opacity="0" result="BackgroundImageFix"/>
<feColorMatrix in="SourceAlpha" type="matrix" values="0 0 0 0 0 0 0 0 0 0 0 0 0 0 0 0 0 0 127 0" result="hardAlpha"/>
<feOffset dy="4"/>
<feGaussianBlur stdDeviation="2"/>
<feComposite in2="hardAlpha" operator="out"/>
<feColorMatrix type="matrix" values="0 0 0 0 0 0 0 0 0 0 0 0 0 0 0 0 0 0 0.25 0"/>
<feBlend mode="normal" in2="BackgroundImageFix" result="effect1_dropShadow_250_2375"/>
<feBlend mode="normal" in="SourceGraphic" in2="effect1_dropShadow_250_2375" result="shape"/>
</filter>
</defs>
</svg>
