<svg width="87" height="87" viewBox="0 0 87 87" fill="none" xmlns="http://www.w3.org/2000/svg">
<g filter="url(#filter0_d_250_2373)">
<path d="M65.947 28.8401C65.6734 30.2449 66.1032 31.7311 67.0923 32.8137L80.9991 47.618C82.1767 48.8735 82.5548 50.6817 81.9681 52.2446C81.4242 53.8232 80.0218 54.896 78.3684 55.0131L58.8816 56.6237C58.2003 56.6741 57.5493 56.8896 56.9728 57.2461L56.0975 57.8245C55.8253 58.0726 55.5954 58.3708 55.4273 58.7062L46.3244 76.0395C45.8638 76.8803 45.1502 77.542 44.2779 77.9282C42.1145 78.8114 39.5736 77.7399 38.5524 75.513L30.3917 56.912C29.777 55.5674 28.5739 54.5823 27.1654 54.2695L7.65161 50.0947C6.01897 49.7446 4.69291 48.475 4.24819 46.8328C3.79279 45.2026 4.24923 43.4917 5.43741 42.3896L19.8732 29.3353C21.0066 28.3961 21.5631 26.9068 21.3496 25.3899L18.3523 5.4741C18.296 5.02366 18.306 4.56836 18.3927 4.13071L18.5264 3.70102C18.5616 3.42419 18.6395 3.16298 18.7548 2.91611L19.0172 2.5477L19.4093 1.94727L20.7691 1.04879C22.071 0.378732 23.6448 0.436117 24.9573 1.2075L42.1506 11.6458C43.4009 12.4144 44.9145 12.5213 46.1975 11.9418L63.8676 3.78253C65.3588 3.08986 67.143 3.32521 68.4891 4.38642C69.8117 5.46809 70.4336 7.20289 70.087 8.84126L65.947 28.8401Z" fill="white"/>
</g>
<defs>
<filter id="filter0_d_250_2373" x="0.074707" y="0.584473" width="86.166" height="85.6528" filterUnits="userSpaceOnUse" color-interpolation-filters="sRGB">
<feFlood flood-opacity="0" result="BackgroundImageFix"/>
<feColorMatrix in="SourceAlpha" type="matrix" values="0 0 0 0 0 0 0 0 0 0 0 0 0 0 0 0 0 0 127 0" result="hardAlpha"/>
<feOffset dy="4"/>
<feGaussianBlur stdDeviation="2"/>
<feComposite in2="hardAlpha" operator="out"/>
<feColorMatrix type="matrix" values="0 0 0 0 0 0 0 0 0 0 0 0 0 0 0 0 0 0 0.25 0"/>
<feBlend mode="normal" in2="BackgroundImageFix" result="effect1_dropShadow_250_2373"/>
<feBlend mode="normal" in="SourceGraphic" in2="effect1_dropShadow_250_2373" result="shape"/>
</filter>
</defs>
</svg>
