<svg width="30" height="29" viewBox="0 0 30 29" fill="none" xmlns="http://www.w3.org/2000/svg">
<g filter="url(#filter0_d_250_2379)">
<path d="M21.1891 7.41287C21.1174 7.78093 21.23 8.17032 21.4892 8.45395L25.1328 12.3327C25.4413 12.6617 25.5403 13.1354 25.3866 13.5449C25.2441 13.9585 24.8767 14.2396 24.4435 14.2702L19.3379 14.6922C19.1594 14.7054 18.9889 14.7619 18.8378 14.8553L18.6085 15.0068C18.5372 15.0718 18.477 15.15 18.4329 15.2378L16.0479 19.7792C15.9273 19.9995 15.7403 20.1728 15.5117 20.274C14.9449 20.5054 14.2792 20.2247 14.0117 19.6412L11.8735 14.7677C11.7125 14.4155 11.3973 14.1574 11.0283 14.0754L5.91562 12.9816C5.48787 12.8899 5.14044 12.5572 5.02392 12.127C4.90461 11.6999 5.02419 11.2516 5.3355 10.9629L9.11769 7.5426C9.41466 7.29656 9.56045 6.90636 9.50451 6.50891L8.71922 1.29096C8.70446 1.17294 8.7071 1.05365 8.72981 0.938987L8.76483 0.826405C8.77405 0.753876 8.79448 0.685438 8.82468 0.62076L8.89342 0.524235L8.99615 0.366921L9.35242 0.131518C9.69353 -0.0440377 10.1059 -0.0290025 10.4497 0.173102L14.9544 2.90795C15.282 3.10932 15.6786 3.13732 16.0147 2.9855L20.6443 0.847762C21.035 0.666281 21.5024 0.727943 21.8551 1.00598C22.2016 1.28938 22.3646 1.7439 22.2738 2.17316L21.1891 7.41287Z" fill="white"/>
</g>
<defs>
<filter id="filter0_d_250_2379" x="0.978516" y="0.00976562" width="28.4795" height="28.3452" filterUnits="userSpaceOnUse" color-interpolation-filters="sRGB">
<feFlood flood-opacity="0" result="BackgroundImageFix"/>
<feColorMatrix in="SourceAlpha" type="matrix" values="0 0 0 0 0 0 0 0 0 0 0 0 0 0 0 0 0 0 127 0" result="hardAlpha"/>
<feOffset dy="4"/>
<feGaussianBlur stdDeviation="2"/>
<feComposite in2="hardAlpha" operator="out"/>
<feColorMatrix type="matrix" values="0 0 0 0 0 0 0 0 0 0 0 0 0 0 0 0 0 0 0.25 0"/>
<feBlend mode="normal" in2="BackgroundImageFix" result="effect1_dropShadow_250_2379"/>
<feBlend mode="normal" in="SourceGraphic" in2="effect1_dropShadow_250_2379" result="shape"/>
</filter>
</defs>
</svg>
