<svg width="49" height="49" viewBox="0 0 49 49" fill="none" xmlns="http://www.w3.org/2000/svg">
<g filter="url(#filter0_d_250_2377)">
<path d="M36.5745 15.1515C36.4335 15.8756 36.6551 16.6417 37.1649 17.1997L44.3331 24.8305C44.94 25.4776 45.1349 26.4096 44.8325 27.2152C44.5521 28.0289 43.8293 28.5819 42.9771 28.6423L32.9327 29.4725C32.5815 29.4984 32.246 29.6095 31.9488 29.7933L31.4977 30.0914C31.3573 30.2193 31.2389 30.373 31.1522 30.5459L26.4602 39.4802C26.2227 39.9136 25.8549 40.2547 25.4053 40.4537C24.2902 40.909 22.9805 40.3566 22.4541 39.2088L18.2477 29.621C17.9309 28.928 17.3108 28.4202 16.5848 28.2589L6.5265 26.1071C5.68496 25.9266 5.00146 25.2722 4.77223 24.4258C4.5375 23.5855 4.77276 22.7036 5.38521 22.1355L12.826 15.4067C13.4103 14.9227 13.6971 14.155 13.5871 13.3731L12.0421 3.10765C12.0131 2.87548 12.0183 2.6408 12.0629 2.41521L12.1319 2.19373C12.15 2.05104 12.1902 1.9164 12.2496 1.78915L12.3848 1.59926L12.5869 1.28977L13.2878 0.826649C13.9589 0.481272 14.7701 0.51085 15.4466 0.908458L24.3088 6.28883C24.9533 6.68499 25.7335 6.74007 26.3947 6.44139L35.5027 2.23574C36.2713 1.87871 37.191 2.00002 37.8848 2.54701C38.5666 3.10455 38.8871 3.99875 38.7085 4.84324L36.5745 15.1515Z" fill="white"/>
</g>
<defs>
<filter id="filter0_d_250_2377" x="0.682617" y="0.587402" width="48.2905" height="48.0259" filterUnits="userSpaceOnUse" color-interpolation-filters="sRGB">
<feFlood flood-opacity="0" result="BackgroundImageFix"/>
<feColorMatrix in="SourceAlpha" type="matrix" values="0 0 0 0 0 0 0 0 0 0 0 0 0 0 0 0 0 0 127 0" result="hardAlpha"/>
<feOffset dy="4"/>
<feGaussianBlur stdDeviation="2"/>
<feComposite in2="hardAlpha" operator="out"/>
<feColorMatrix type="matrix" values="0 0 0 0 0 0 0 0 0 0 0 0 0 0 0 0 0 0 0.25 0"/>
<feBlend mode="normal" in2="BackgroundImageFix" result="effect1_dropShadow_250_2377"/>
<feBlend mode="normal" in="SourceGraphic" in2="effect1_dropShadow_250_2377" result="shape"/>
</filter>
</defs>
</svg>
