<svg width="29" height="29" viewBox="0 0 29 29" fill="none" xmlns="http://www.w3.org/2000/svg">
<g filter="url(#filter0_d_250_2381)">
<path d="M20.339 7.5906C20.2673 7.95866 20.3799 8.34805 20.6391 8.63169L24.2827 12.5104C24.5912 12.8394 24.6902 13.3131 24.5365 13.7226C24.394 14.1362 24.0266 14.4173 23.5934 14.448L18.4878 14.87C18.3093 14.8831 18.1388 14.9396 17.9877 15.033L17.7584 15.1846C17.6871 15.2496 17.6269 15.3277 17.5828 15.4156L15.1978 19.9569C15.0772 20.1772 14.8902 20.3506 14.6616 20.4518C14.0948 20.6832 13.4291 20.4024 13.1616 19.819L11.0234 14.9455C10.8624 14.5932 10.5472 14.3351 10.1782 14.2531L5.06552 13.1593C4.63777 13.0676 4.29034 12.735 4.17383 12.3047C4.05451 11.8776 4.1741 11.4293 4.4854 11.1406L8.26759 7.72034C8.56456 7.47429 8.71036 7.08409 8.65442 6.68664L7.86912 1.46869C7.85436 1.35067 7.857 1.23139 7.87971 1.11672L7.91473 1.00414C7.92395 0.931611 7.94438 0.863172 7.97459 0.798494L8.04332 0.70197L8.14605 0.544656L8.50232 0.309252C8.84343 0.133697 9.25577 0.148732 9.59962 0.350836L14.1043 3.08569C14.4319 3.28706 14.8285 3.31505 15.1646 3.16323L19.7942 1.0255C20.1849 0.844015 20.6523 0.905677 21.005 1.18372C21.3515 1.46711 21.5145 1.92164 21.4237 2.35089L20.339 7.5906Z" fill="white"/>
</g>
<defs>
<filter id="filter0_d_250_2381" x="0.128418" y="0.1875" width="28.4795" height="28.3452" filterUnits="userSpaceOnUse" color-interpolation-filters="sRGB">
<feFlood flood-opacity="0" result="BackgroundImageFix"/>
<feColorMatrix in="SourceAlpha" type="matrix" values="0 0 0 0 0 0 0 0 0 0 0 0 0 0 0 0 0 0 127 0" result="hardAlpha"/>
<feOffset dy="4"/>
<feGaussianBlur stdDeviation="2"/>
<feComposite in2="hardAlpha" operator="out"/>
<feColorMatrix type="matrix" values="0 0 0 0 0 0 0 0 0 0 0 0 0 0 0 0 0 0 0.25 0"/>
<feBlend mode="normal" in2="BackgroundImageFix" result="effect1_dropShadow_250_2381"/>
<feBlend mode="normal" in="SourceGraphic" in2="effect1_dropShadow_250_2381" result="shape"/>
</filter>
</defs>
</svg>
