<svg width="29" height="29" viewBox="0 0 29 29" fill="none" xmlns="http://www.w3.org/2000/svg">
<g filter="url(#filter0_d_250_2383)">
<path d="M20.3024 7.91384C20.2307 8.2819 20.3433 8.67129 20.6024 8.95493L24.246 12.8337C24.5546 13.1626 24.6536 13.6364 24.4999 14.0459C24.3574 14.4594 23.99 14.7405 23.5568 14.7712L18.4512 15.1932C18.2727 15.2064 18.1021 15.2629 17.9511 15.3563L17.7218 15.5078C17.6505 15.5728 17.5902 15.6509 17.5462 15.7388L15.1612 20.2802C15.0405 20.5005 14.8536 20.6738 14.625 20.775C14.0582 21.0064 13.3925 20.7256 13.1249 20.1422L10.9868 15.2687C10.8258 14.9164 10.5106 14.6583 10.1415 14.5764L5.0289 13.4826C4.60115 13.3908 4.25372 13.0582 4.13721 12.628C4.01789 12.2008 4.13748 11.7526 4.44878 11.4638L8.23097 8.04358C8.52794 7.79753 8.67374 7.40733 8.61779 7.00988L7.8325 1.79193C7.81774 1.67392 7.82038 1.55463 7.84309 1.43996L7.87811 1.32738C7.88733 1.25485 7.90776 1.18641 7.93796 1.12174L8.0067 1.02521L8.10943 0.867898L8.4657 0.632495C8.80681 0.456939 9.21915 0.471974 9.563 0.674078L14.0677 3.40893C14.3953 3.6103 14.7918 3.6383 15.128 3.48648L19.7576 1.34874C20.1482 1.16726 20.6157 1.22892 20.9684 1.50696C21.3149 1.79036 21.4779 2.24488 21.387 2.67413L20.3024 7.91384Z" fill="white"/>
</g>
<defs>
<filter id="filter0_d_250_2383" x="0.0917969" y="0.510742" width="28.4795" height="28.3452" filterUnits="userSpaceOnUse" color-interpolation-filters="sRGB">
<feFlood flood-opacity="0" result="BackgroundImageFix"/>
<feColorMatrix in="SourceAlpha" type="matrix" values="0 0 0 0 0 0 0 0 0 0 0 0 0 0 0 0 0 0 127 0" result="hardAlpha"/>
<feOffset dy="4"/>
<feGaussianBlur stdDeviation="2"/>
<feComposite in2="hardAlpha" operator="out"/>
<feColorMatrix type="matrix" values="0 0 0 0 0 0 0 0 0 0 0 0 0 0 0 0 0 0 0.25 0"/>
<feBlend mode="normal" in2="BackgroundImageFix" result="effect1_dropShadow_250_2383"/>
<feBlend mode="normal" in="SourceGraphic" in2="effect1_dropShadow_250_2383" result="shape"/>
</filter>
</defs>
</svg>
