<svg width="13" height="14" viewBox="0 0 13 14" fill="none" xmlns="http://www.w3.org/2000/svg">
<path d="M0.84375 3.34082V2.66406C0.84375 2.17773 0.949219 1.73535 1.16016 1.33691C1.37109 0.938477 1.68164 0.619141 2.0918 0.378906C2.50195 0.138672 3.00586 0.0185547 3.60352 0.0185547C4.21875 0.0185547 4.73145 0.138672 5.1416 0.378906C5.55762 0.619141 5.86816 0.938477 6.07324 1.33691C6.28418 1.73535 6.38965 2.17773 6.38965 2.66406V3.34082C6.38965 3.81543 6.28418 4.25195 6.07324 4.65039C5.86816 5.04883 5.56055 5.36816 5.15039 5.6084C4.74023 5.84863 4.2334 5.96875 3.62988 5.96875C3.02051 5.96875 2.50781 5.84863 2.0918 5.6084C1.68164 5.36816 1.37109 5.04883 1.16016 4.65039C0.949219 4.25195 0.84375 3.81543 0.84375 3.34082ZM2.52246 2.66406V3.34082C2.52246 3.5459 2.56055 3.74219 2.63672 3.92969C2.71875 4.11133 2.8418 4.26074 3.00586 4.37793C3.17578 4.48926 3.38086 4.54492 3.62109 4.54492C3.87305 4.54492 4.07812 4.48926 4.23633 4.37793C4.39453 4.26074 4.51172 4.11133 4.58789 3.92969C4.66406 3.74219 4.70215 3.5459 4.70215 3.34082V2.66406C4.70215 2.44727 4.66113 2.24805 4.5791 2.06641C4.50293 1.87891 4.38281 1.72949 4.21875 1.61816C4.06055 1.50098 3.85547 1.44238 3.60352 1.44238C3.36914 1.44238 3.16992 1.50098 3.00586 1.61816C2.8418 1.72949 2.71875 1.87891 2.63672 2.06641C2.56055 2.24805 2.52246 2.44727 2.52246 2.66406ZM6.96094 10.5391V9.8623C6.96094 9.38184 7.06641 8.94238 7.27734 8.54395C7.49414 8.14551 7.80762 7.82617 8.21777 7.58594C8.63379 7.3457 9.14355 7.22559 9.74707 7.22559C10.3564 7.22559 10.8662 7.3457 11.2764 7.58594C11.6865 7.82617 11.9971 8.14551 12.208 8.54395C12.4189 8.94238 12.5244 9.38184 12.5244 9.8623V10.5391C12.5244 11.0195 12.4189 11.459 12.208 11.8574C12.0029 12.2559 11.6953 12.5752 11.2852 12.8154C10.875 13.0557 10.3682 13.1758 9.76465 13.1758C9.15527 13.1758 8.64258 13.0557 8.22656 12.8154C7.81055 12.5752 7.49414 12.2559 7.27734 11.8574C7.06641 11.459 6.96094 11.0195 6.96094 10.5391ZM8.64844 9.8623V10.5391C8.64844 10.75 8.69531 10.9492 8.78906 11.1367C8.88281 11.3242 9.01172 11.4736 9.17578 11.585C9.3457 11.6963 9.54199 11.752 9.76465 11.752C10.0459 11.752 10.2656 11.6963 10.4238 11.585C10.582 11.4736 10.6904 11.3242 10.749 11.1367C10.8135 10.9492 10.8457 10.75 10.8457 10.5391V9.8623C10.8457 9.65137 10.8047 9.45508 10.7227 9.27344C10.6406 9.08594 10.5176 8.93652 10.3535 8.8252C10.1953 8.70801 9.99316 8.64941 9.74707 8.64941C9.50098 8.64941 9.2959 8.70801 9.13184 8.8252C8.97363 8.93652 8.85352 9.08594 8.77148 9.27344C8.68945 9.45508 8.64844 9.65137 8.64844 9.8623ZM10.3711 2.03125L4.12207 12.0332L2.8916 11.3828L9.14062 1.38086L10.3711 2.03125Z" fill="#0BBB4E"/>
</svg>
