<svg width="72" height="72" viewBox="0 0 72 72" fill="none" xmlns="http://www.w3.org/2000/svg">
<path d="M0.84317 15.866C1.31353 9.54583 1.54871 6.38573 4.21247 3.75216C6.87623 1.11859 9.85784 0.930833 15.8211 0.555325C20.8531 0.238452 27.4728 0 36 0C44.5866 0 51.2389 0.241783 56.2838 0.561953C62.2018 0.937536 65.1608 1.12533 67.8229 3.75863C70.485 6.39193 70.7172 9.51258 71.1816 15.7539C71.6198 21.6434 72 28.8217 72 36C72 41.9705 71.6565 48.6282 71.2461 54.4508C70.7331 61.7303 70.4766 65.37 67.8227 68.0141C65.1688 70.6582 61.6021 70.8963 54.4688 71.3725C49.1942 71.7247 42.8725 72 36 72C29.083 72 22.7238 71.7211 17.4287 71.3657C10.3384 70.8898 6.79321 70.6518 4.14029 68.007C1.48736 65.3621 1.23467 61.7611 0.729299 54.5592C0.329911 48.8676 0 42.2688 0 36C0 29.1438 0.394626 21.8931 0.84317 15.866Z" fill="url(#paint0_linear_883_2006)"/>
<path d="M47.3355 40.5137C46.842 41.0164 46.6152 41.7434 46.7276 42.4564L48.4218 52.3101C48.5647 53.1453 48.2293 53.9905 47.5642 54.4731C46.9125 54.9738 46.0454 55.0339 45.3346 54.6334L36.8946 50.0069C36.6011 49.8427 36.2752 49.7546 35.9418 49.7446H35.4253C35.2462 49.7726 35.0709 49.8327 34.9108 49.9248L26.4689 54.5733C26.0515 54.7936 25.5789 54.8717 25.1159 54.7936C23.9877 54.5693 23.235 53.4397 23.4198 52.248L25.1159 42.3943C25.2283 41.6753 25.0015 40.9443 24.508 40.4336L17.6267 33.4239C17.0512 32.8371 16.8511 31.9558 17.1141 31.1607C17.3695 30.3676 18.0212 29.7888 18.8082 29.6586L28.2792 28.2146C28.9995 28.1365 29.6322 27.6759 29.9562 26.9949L34.1295 18.0024C34.2286 17.8022 34.3563 17.6179 34.5106 17.4617L34.6821 17.3215C34.7717 17.2173 34.8746 17.1312 34.9889 17.0611L35.1967 16.981L35.5206 16.8408H36.3229C37.0394 16.9189 37.6702 17.3696 37.9998 18.0425L42.2284 26.9949C42.5333 27.6498 43.126 28.1045 43.8101 28.2146L53.2811 29.6586C54.0815 29.7788 54.7504 30.3596 55.0152 31.1607C55.2649 31.9638 55.0495 32.8451 54.4626 33.4239L47.3355 40.5137Z" fill="white"/>
<defs>
<linearGradient id="paint0_linear_883_2006" x1="36" y1="0" x2="85.9881" y2="11.5713" gradientUnits="userSpaceOnUse">
<stop stopColor="#FE6546"/>
<stop offset="1" stopColor="#FF9E0D"/>
</linearGradient>
</defs>
</svg>
