<svg width="284" height="284" viewBox="0 0 284 284" fill="none" xmlns="http://www.w3.org/2000/svg">
<g clipPath="url(#clip0_243_6670)">
<path d="M281.711 167.34V166.977C281.711 166.362 282.576 162.509 283.163 156.701C283.163 156.199 283.163 155.696 283.302 155.166C283.442 154.635 283.302 153.686 283.498 152.904C284.941 134.402 282.73 115.796 276.992 98.1477C276.378 96.249 275.708 94.3503 275.01 92.5632C271.667 83.6062 267.43 75.0091 262.362 66.9024C259.892 62.9003 257.198 59.0409 254.293 55.3425C252.479 52.997 250.58 50.7353 248.709 48.5015L248.43 48.1664L248.179 47.8872L247.174 46.7423C245.89 45.3462 244.382 43.9501 242.986 42.3306L242.818 42.163C242.065 41.4091 241.311 40.6552 240.501 39.9013L239.384 38.8682C239.077 38.5611 238.798 38.2818 238.463 38.0026L237.709 37.3046C232.965 32.9892 227.938 28.9967 222.66 25.3537L219.589 23.2595L218.64 22.6452L217.691 22.0309H217.467L215.904 21.0816L215.68 20.942H215.457L214.368 20.2997L212.944 19.4621L211.688 18.764L210.99 18.3731H210.795L210.515 18.2335L210.124 18.038L208.728 17.2841L207.556 16.6698L206.439 16.0834L205.741 15.7205L204.373 15.0503L203.396 14.6035L202.111 13.9613H201.86L200.883 13.4866L200.297 13.2353L199.571 12.9003H199.431H199.208L198.789 12.7327L197.728 12.286L197.03 11.9788L195.857 11.4762L194.824 11.0574L194.21 10.834L193.261 10.471L192.367 10.108L190.86 9.54956L189.492 9.07488L189.045 8.90733L187.761 8.48851L185.862 7.87421L184.578 7.42744L183.126 7.0086L181.59 6.53392L180.641 6.28263L179.775 6.03132L179.105 5.86379L178.38 5.66833C175.588 4.94235 172.796 4.32805 170.004 3.7696L168.217 3.40661L166.346 3.07154L165.229 2.87608L162.437 2.45724H161.516L157.747 2.01049L155.988 1.84294H155.597L152.805 1.61955H150.767L147.137 1.45202C142.949 1.28449 138.762 1.45202 134.574 1.45202C132.061 1.45202 129.855 1.73125 127.063 2.06632C115.423 3.31222 103.982 5.99457 93.001 10.0522L89.7342 11.3087L89.2876 11.5041C87.389 12.258 85.5184 13.0678 83.7036 13.9055L83.257 14.1009H83.0895C83.0158 14.0859 82.9398 14.0859 82.8661 14.1009H82.6985L81.135 14.799L78.1197 16.3068L76.4723 17.1445L73.2896 18.8478H73.15L72.4241 19.2387C67.2031 22.1985 63.8806 24.4881 63.6852 24.6277C62.01 25.7446 60.3348 26.9174 58.6597 28.146C57.487 29.0116 56.2863 29.9051 55.03 30.9382L54.7508 31.1337L54.5833 31.3012C52.0705 33.2558 49.3902 35.4896 46.3749 38.2539L46.2353 38.3935C44.8673 39.65 43.4433 41.1858 41.9635 42.6098L38.334 46.2956L34.5369 50.7632C33.2805 52.2152 32.0799 53.5555 30.9911 54.9237C28.5377 57.9434 26.263 61.1041 24.1786 64.3894C22.1405 67.5446 20.1024 70.9233 18.2597 74.2181C16.1656 77.9834 14.3009 81.8717 12.6757 85.8618C9.55903 92.8774 7.07363 100.157 5.24902 107.613C1.55356 122.199 0.21516 137.281 1.28446 152.29C1.79528 159.718 2.89692 167.095 4.57898 174.348C5.38865 177.978 6.05871 180.575 7.00798 183.535C8.12477 187.193 9.40913 190.851 10.8889 194.508C11.0564 194.955 11.196 195.374 11.3914 195.849C12.9555 200.046 14.8217 204.124 16.9754 208.051C18.4551 210.675 20.3258 214.194 21.8893 216.735C23.4528 219.276 25.5747 222.598 27.4732 225.111C29.3997 227.904 30.2651 228.937 32.1078 231.199C34.3693 233.991 36.7146 236.783 39.1157 239.408C39.8975 240.273 40.6793 241.083 41.4889 241.893C42.2986 242.703 43.3596 243.792 44.2809 244.685L46.0958 246.36L46.4308 246.668L49.0273 249.013L49.6973 249.572C52.4893 252.113 56.3423 255.156 60.5302 258.172C61.4516 258.814 62.708 259.707 64.2157 260.713L65.4999 261.578L67.7336 263.03L69.2971 263.98L69.8553 264.315L70.7209 264.817L72.1448 265.655L73.5687 266.465C78.7577 269.422 84.1506 272.007 89.7064 274.199L90.209 274.423L91.6886 274.981H91.8561L93.1405 275.484L96.1 276.545C97.4402 277.019 99.227 277.606 100.567 278.025C101.907 278.443 103.359 278.89 104.783 279.281L106.877 279.84C108.776 280.342 111.344 280.873 113.243 281.347C115.141 281.822 117.822 282.185 119.804 282.576C124.048 283.19 129.715 283.833 133.959 284.14C137.675 284.419 141.403 284.503 145.127 284.391H147.919C150.544 284.391 153.28 284.112 155.569 283.972L158.361 283.637C160.539 283.414 162.689 283.134 164.811 282.827L165.899 282.688C168.412 282.353 171.483 281.682 174.275 281.04L177.849 280.175C181.032 279.393 185.024 278.304 188.012 277.215H188.319C191.111 276.293 193.735 275.288 196.416 274.199L198.119 273.529L201.078 272.161L203.452 271.044L207.947 268.95C211.241 267.33 214.438 265.522 217.523 263.533L217.774 263.393L218.221 263.086C220.706 261.522 223.526 259.624 226.876 257.278L227.1 257.111C232.52 253.197 237.627 248.865 242.372 244.155L242.539 243.987C243.991 242.535 245.527 240.971 247.062 239.296C247.732 238.598 248.375 237.872 249.045 237.118C249.715 236.364 250.887 235.052 251.641 234.13L252.395 233.181C253.735 231.562 255.187 229.886 256.387 228.099C258.23 225.698 260.045 223.213 261.413 221.007C263.971 217.166 266.329 213.196 268.477 209.112C269.578 206.348 270.519 203.523 271.297 200.651C272.525 197.859 273.67 195.234 274.759 192.275L275.457 190.348C276.881 186.495 278.249 182.446 279.254 178.23C279.242 178.081 279.242 177.931 279.254 177.783V177.504C280.315 174.292 281.068 170.858 281.711 167.34Z" fill="url(#paint0_radial_243_6670)"/>
<mask id="mask0_243_6670" style="mask-type:luminance" maskUnits="userSpaceOnUse" x="0" y="1" width="283" height="283">
<path d="M5.61184 102.392C5.62384 102.281 5.62384 102.168 5.61184 102.057C5.77936 101.443 6.81243 97.673 8.87849 92.2002C9.04601 91.7255 9.2414 91.2508 9.43684 90.7761C9.63227 90.3014 9.96736 89.38 10.2745 88.654C17.2231 71.4461 27.4876 55.7727 40.4837 42.526C41.8797 41.102 28.7295 55.6496 30.1813 54.3093L44.7833 38.3376C51.7632 31.804 59.3871 25.9944 67.538 20.9978C71.5427 18.5191 75.6811 16.2632 79.9344 14.2405C82.7263 12.9561 85.2949 11.7833 88.031 10.6664L88.4499 10.471H88.7849L90.2088 9.9125C91.9585 9.22374 93.8198 8.52568 95.7928 7.81831H96.016L99.0873 6.84102L100.539 6.39427L101.768 6.03127L102.717 5.75205C108.894 4.00391 115.18 2.66997 121.535 1.75912L125.192 1.25652H126.337H127.454H127.873L129.715 1.08899H130.246H131.502H133.149H134.573H136.36H137.952H149.119H150.292H151.046H152.33H153.419H154.089H155.094H156.044L157.635 1.25652L159.087 1.42405H159.561L160.902 1.6195L162.884 1.89875L164.224 2.0942L165.732 2.37342L167.323 2.65264L168.272 2.82017L169.138 2.98772H169.808L170.562 3.15525C173.354 3.7137 176.146 4.38384 178.938 5.13775L180.697 5.64035L182.54 6.17089L183.628 6.47804L186.225 7.3157L187.146 7.62285L190.72 8.87938L192.367 9.52158H192.507H192.842L195.355 10.4989L197.253 11.3086L200.604 12.7606C204.401 14.4918 208.142 16.4184 211.771 18.4847C213.977 19.6854 215.876 20.8302 218.221 22.3659C228.085 28.6773 237.134 36.1798 245.164 44.704L247.537 47.3008L247.844 47.6637C249.184 49.1716 250.636 50.7352 251.809 52.3268L252.116 52.6898V52.8294L252.283 53.0249V53.1645L253.344 54.5048C254.042 55.3983 254.74 56.2918 255.382 57.297L256.471 58.7769C257.225 59.8101 257.923 60.7874 258.565 61.7367L259.04 62.4068C262.39 67.405 264.344 70.7836 264.456 71.1187C265.461 72.8778 266.438 74.6648 267.248 76.5077C267.946 77.8201 268.616 79.1604 269.314 80.5844V80.8916V81.115C270.682 83.9072 272.106 87.1741 273.53 90.9995V91.167C274.172 92.9262 274.814 94.8528 275.457 96.7515C276.099 98.6503 276.573 100.186 277.076 101.666L278.472 107.25C278.947 109.121 279.393 110.88 279.784 112.556C280.636 116.351 281.27 120.192 281.683 124.06C282.101 127.773 282.409 131.711 282.604 135.48V135.787C282.86 140.102 282.86 144.428 282.604 148.743C282.259 156.413 281.241 164.037 279.561 171.528C277.976 178.889 275.791 186.108 273.027 193.112C270.303 200.051 267.036 206.764 263.256 213.188C259.488 219.608 255.212 225.714 250.468 231.45C248.502 233.95 246.405 236.346 244.186 238.626C241.562 241.418 238.77 244.21 235.81 246.695L234.777 247.673C231.48 250.709 227.972 253.509 224.279 256.05C221.795 257.725 218.556 260.042 215.904 261.634C213.251 263.226 210.013 265.236 207.332 266.604C204.373 268.168 203.172 268.81 200.464 270.011C197.142 271.574 193.819 272.971 190.497 274.227C189.408 274.646 188.347 275.037 187.258 275.4C186.169 275.763 184.745 276.238 183.628 276.573L181.283 277.271L180.836 277.41L177.458 278.332L176.621 278.555C172.879 279.532 168.245 280.593 163.079 281.347L158.64 281.99L157.132 282.185L154.34 282.492L154.033 283.581H153.391H153.252H152.274H150.599H148.98C143.006 283.899 137.017 283.805 131.055 283.302H130.525L128.934 283.134H128.766H127.398L124.271 282.771C122.875 282.604 121.004 282.325 119.608 282.101C118.212 281.878 116.816 281.627 115.281 281.347L113.159 280.929C111.232 280.538 108.692 279.895 106.793 279.449C104.895 279.002 102.298 278.164 100.372 277.634C96.2954 276.293 90.9346 274.339 86.97 272.719C83.5368 271.319 80.1816 269.734 76.919 267.973L74.6016 266.688L67.9287 262.891L65.6672 261.383C63.8245 260.21 62.0097 259.009 60.2508 257.753L59.3296 257.166C57.2356 255.742 54.7507 253.76 52.5451 251.945L49.7531 249.599C47.0351 247.343 44.4439 244.938 41.9913 242.395L41.7679 242.144C39.7577 240.106 37.7754 238.012 35.8769 235.834L34.6484 234.465L32.6103 231.924C32.0519 231.254 31.5214 230.556 30.963 229.858L27.8919 226.005C25.6623 223.082 23.6021 220.033 21.7215 216.874L21.554 216.651L21.2749 216.148C19.7951 213.663 18.092 210.564 16.1655 207.101C16.1086 207.024 16.0617 206.939 16.0259 206.85C12.9041 200.938 10.2618 194.784 8.1246 188.449V188.226C7.48245 186.271 6.81242 184.205 6.17027 181.999C5.89107 181.05 5.63977 180.1 5.36057 179.207C5.08137 178.313 4.66256 176.415 4.38336 175.381L4.13209 174.209C3.65746 172.17 3.21074 170.048 2.81986 167.87C2.23355 164.883 1.73096 161.867 1.47968 159.27C0.949205 154.886 0.586288 150.279 0.474609 145.476C0.474609 142.544 0.474609 139.613 0.474609 136.932C0.474609 134.251 0.78173 131.013 1.08885 127.969C1.08885 127.271 1.22847 126.629 1.28431 125.959C1.75894 121.854 2.42896 117.582 3.3224 113.421C3.33453 113.263 3.33453 113.105 3.3224 112.947V112.667C3.76911 109.261 4.63465 105.854 5.61184 102.392Z" fill="white"/>
</mask>
<g mask="url(#mask0_243_6670)">
<path d="M90.4879 108.73C89.0653 109.236 87.8202 110.144 86.9042 111.344C85.9882 112.545 85.4407 113.985 85.3283 115.491C85.2159 116.997 85.5435 118.503 86.2711 119.826C86.9988 121.149 88.0952 122.232 89.4269 122.943C89.8808 123.149 90.347 123.326 90.8229 123.473C104.001 126.629 110.032 128.081 131.39 132.632C102.605 161.001 102.494 161.225 101.768 162.593C101.133 163.877 100.837 165.302 100.91 166.732C100.983 168.162 101.421 169.55 102.183 170.763C102.944 171.976 104.004 172.973 105.261 173.659C106.518 174.345 107.93 174.698 109.362 174.683C111.225 174.633 112.996 173.862 114.304 172.533C146.635 140.534 149.762 137.351 149.957 137.128C150.888 136.041 151.513 134.725 151.768 133.317C152.023 131.909 151.899 130.458 151.409 129.114L149.566 124.06C149.082 122.753 148.271 121.591 147.21 120.687C146.15 119.783 144.875 119.165 143.508 118.894C126.923 115.627 110.506 111.662 93.8942 108.451C92.7984 108.29 91.68 108.385 90.6275 108.73" fill="#18130C"/>
<path d="M220.231 61.8484C219.885 61.9973 219.58 62.2273 219.342 62.5189C219.104 62.8105 218.94 63.1552 218.863 63.5237C215.497 75.321 210.517 86.5966 204.065 97.0308C203.484 98.1676 203.182 99.426 203.182 100.703C203.182 101.979 203.484 103.238 204.065 104.374C204.763 106.022 205.461 107.697 206.131 109.373C206.617 110.713 207.415 111.918 208.459 112.889C209.503 113.86 210.762 114.569 212.134 114.957C224.051 117.199 235.775 120.364 247.201 124.423C247.645 124.597 248.125 124.654 248.597 124.59C251.752 124.339 252.813 117.135 249.547 111.802C248.865 110.503 247.777 109.463 246.447 108.842C237.459 105.534 228.239 102.893 218.863 100.94C228.551 81.3941 230.031 74.4414 230.282 72.0122C230.449 67.6563 224.447 60.5639 220.482 61.7087H220.231" fill="#18130C"/>
<path d="M221.403 155.696C219.798 156.558 218.498 157.895 217.683 159.525C216.868 161.155 216.578 162.997 216.852 164.799C218.472 182.557 211.268 196.965 199.123 199.814C189.016 202.187 179.077 194.564 173.828 180.268C173.305 178.983 172.433 177.871 171.311 177.056C170.189 176.242 168.861 175.758 167.478 175.659C166.095 175.56 164.712 175.851 163.485 176.497C162.259 177.144 161.238 178.121 160.538 179.318C154.954 187.472 170.059 207.241 182.874 212.239C217.55 225.53 233.939 173.148 227.546 158.767C227.353 158.145 227.037 157.568 226.617 157.071C226.197 156.573 225.681 156.165 225.101 155.871C224.52 155.577 223.886 155.402 223.236 155.358C222.587 155.313 221.935 155.4 221.319 155.612" fill="#18130C"/>
<path d="M106.876 189.482C81.3018 198.92 83.5074 218.941 98.5004 226.005C120.697 236.532 147.695 216.651 141.971 199.981C138.286 189.259 122.232 184.456 106.96 189.482" fill="#FF0000"/>
<path d="M256.695 135.341C239.72 143.913 239.106 173.734 252.005 178.202C265.657 182.976 275.122 155.138 268.086 140.45C265.574 135.201 261.414 133.358 256.695 135.341Z" fill="#FF0000"/>
</g>
</g>
<defs>
<radialGradient id="paint0_radial_243_6670" cx="0" cy="0" r="1" gradientUnits="userSpaceOnUse" gradientTransform="translate(144.604 165.92) rotate(13.2413) scale(163.164 163.178)">
<stop stop-color="#F79F40"/>
<stop offset="0.16" stop-color="#F7A542"/>
<stop offset="0.37" stop-color="#F8B44A"/>
<stop offset="0.6" stop-color="#FACE55"/>
<stop offset="0.77" stop-color="#FBE660"/>
<stop offset="0.91" stop-color="#FBF36F"/>
<stop offset="0.93" stop-color="#FBF672"/>
<stop offset="0.95" stop-color="#FBF676"/>
<stop offset="0.96" stop-color="#FBF783"/>
<stop offset="0.98" stop-color="#FCF897"/>
<stop offset="0.99" stop-color="#FDFAB4"/>
<stop offset="1" stop-color="#FDFBC2"/>
</radialGradient>
<clipPath id="clip0_243_6670">
<rect width="284" height="284" fill="white"/>
</clipPath>
</defs>
</svg>
