<svg width="10" height="10" viewBox="0 0 10 10" fill="none" xmlns="http://www.w3.org/2000/svg">
<path d="M9.92988 3.70363C9.84464 3.42336 9.67433 3.17886 9.44415 3.0063C9.21397 2.83375 8.93614 2.74228 8.65174 2.74544H6.83099L6.27797 0.965082C6.19101 0.684839 6.02012 0.440365 5.78995 0.266915C5.55979 0.0934641 5.28224 0 4.99732 0C4.71241 0 4.43486 0.0934641 4.20469 0.266915C3.97453 0.440365 3.80364 0.684839 3.71668 0.965082L3.16366 2.74544H1.34291C1.05942 2.74585 0.783307 2.83879 0.55401 3.01099C0.324714 3.18318 0.153963 3.42581 0.0661475 3.70422C-0.0216681 3.98264 -0.0220568 4.2826 0.065037 4.56126C0.152131 4.83991 0.322252 5.08302 0.551101 5.25584L2.03304 6.37502L1.4696 8.17733C1.37855 8.45686 1.37739 8.7593 1.46631 9.03956C1.55523 9.31983 1.72946 9.5629 1.96302 9.73255C2.19259 9.90765 2.47078 10.0015 2.75615 9.99998C3.04152 9.99851 3.31879 9.90184 3.54664 9.72438L4.99732 8.62155L6.44842 9.72308C6.67757 9.89718 6.95426 9.99174 7.23872 9.99317C7.52318 9.99461 7.80075 9.90283 8.03153 9.73105C8.2623 9.55927 8.4344 9.31632 8.52308 9.03714C8.61176 8.75797 8.61245 8.45693 8.52505 8.17733L7.96161 6.37502L9.44521 5.25584C9.67668 5.08519 9.84879 4.84209 9.93609 4.56253C10.0234 4.28297 10.0212 3.98181 9.92988 3.70363Z" fill="white"/>
</svg>
