<svg width="12" height="12" viewBox="0 0 12 12" fill="none" xmlns="http://www.w3.org/2000/svg">
<path d="M1.75 6.00006C1.75 3.5867 3.58664 1.75006 6 1.75006C8.41681 1.75006 10.25 3.58326 10.25 6.00006C10.25 8.36032 8.36026 10.2501 6 10.2501C3.63633 10.2501 1.75 8.36373 1.75 6.00006Z" fill="url(#paint0_linear_243_7619)"/>
<path fill-rule="evenodd" clip-rule="evenodd" d="M7.18336 6.48832C7.17649 6.49532 7.17012 6.50274 7.16425 6.51052L6.31292 5.94234L6.9185 5.21161L7.80728 5.34734C7.89127 5.35997 7.96146 5.42102 7.98925 5.50522C8.01545 5.58964 7.99285 5.68226 7.93126 5.7431L7.18336 6.48832ZM6.57975 4.92385L6.20369 4.12637C6.16909 4.05564 6.1029 4.00827 6.02771 4.00006H5.94352L5.90953 4.0148L5.88773 4.02322C5.87573 4.03059 5.86493 4.03964 5.85553 4.05058L5.83754 4.06532C5.82134 4.08174 5.80794 4.10111 5.79754 4.12216L5.3596 5.06736C5.32691 5.13618 5.26427 5.18359 5.1923 5.19443L5.94126 5.69429L6.57975 4.92385ZM7.29734 7.72823L7.18209 7.05676L4.54052 5.29377L4.18975 5.34734C4.10716 5.36102 4.03877 5.42186 4.01197 5.50522C3.98438 5.5888 4.00537 5.68142 4.06577 5.7431L4.78787 6.4799C4.83967 6.53358 4.86346 6.61041 4.85166 6.68599L4.67369 7.72171C4.65429 7.84696 4.73328 7.96569 4.85166 7.98927C4.90026 7.99748 4.94985 7.98927 4.99365 7.96611L5.87953 7.47751C5.89633 7.46783 5.91472 7.46151 5.93352 7.45857H5.98772C6.02271 7.45962 6.05691 7.46888 6.0877 7.48614L6.97339 7.97243C7.04798 8.01453 7.13896 8.00821 7.20736 7.95559C7.27715 7.90485 7.31234 7.81602 7.29734 7.72823Z" fill="white"/>
<path fill-rule="evenodd" clip-rule="evenodd" d="M6.70765 0.581347C6.34193 0.289697 5.82313 0.289697 5.45741 0.581347C5.20339 0.783924 4.86695 0.850846 4.55474 0.760901C4.10525 0.631406 3.62594 0.829942 3.39967 1.23935C3.2425 1.52371 2.95728 1.71429 2.63442 1.75067C2.16959 1.80305 1.80274 2.16989 1.75037 2.63472C1.71399 2.95759 1.52341 3.24281 1.23904 3.39997C0.829636 3.62624 0.631101 4.10555 0.760595 4.55504C0.850541 4.86725 0.783619 5.20369 0.581042 5.45772C0.289392 5.82344 0.289392 6.34223 0.581042 6.70795C0.783619 6.96198 0.850541 7.29842 0.760595 7.61063C0.631101 8.06012 0.829636 8.53943 1.23904 8.7657C1.52341 8.92286 1.71399 9.20808 1.75037 9.53095C1.80274 9.99578 2.16959 10.3626 2.63442 10.415C2.95728 10.4514 3.2425 10.642 3.39967 10.9263C3.62594 11.3357 4.10525 11.5343 4.55474 11.4048C4.86695 11.3148 5.20339 11.3817 5.45741 11.5843C5.82313 11.876 6.34193 11.876 6.70765 11.5843C6.96167 11.3817 7.29811 11.3148 7.61032 11.4048C8.05981 11.5343 8.53912 11.3357 8.76539 10.9263C8.92256 10.642 9.20778 10.4514 9.53064 10.415C9.99547 10.3626 10.3623 9.99578 10.4147 9.53095C10.4511 9.20808 10.6417 8.92286 10.926 8.7657C11.3354 8.53943 11.534 8.06012 11.4045 7.61063C11.3145 7.29842 11.3814 6.96198 11.584 6.70795C11.8757 6.34223 11.8757 5.82344 11.584 5.45772C11.3814 5.20369 11.3145 4.86725 11.4045 4.55504C11.534 4.10555 11.3354 3.62624 10.926 3.39997C10.6417 3.24281 10.4511 2.95759 10.4147 2.63472C10.3623 2.16989 9.99547 1.80305 9.53064 1.75067C9.20778 1.71429 8.92256 1.52371 8.76539 1.23935C8.53912 0.829941 8.05981 0.631406 7.61032 0.760901C7.29811 0.850846 6.96167 0.783924 6.70765 0.581347ZM9.97155 6.47302C9.99031 6.31377 9.99968 6.14984 9.99968 5.9859C9.99031 3.77515 8.1943 1.9953 5.98563 1.99998C3.77227 2.00935 1.99033 3.80325 1.99971 6.02338C1.99971 6.18731 2.01378 6.35124 2.03253 6.51518C2.06067 6.74 2.10756 6.96014 2.17321 7.17091C2.3092 7.62056 2.52491 8.0421 2.80627 8.41212C2.95633 8.60884 3.12514 8.79151 3.30803 8.96012C4.0208 9.61117 4.97274 10.0046 6.01376 9.99993C7.05479 9.99525 8.00204 9.59712 8.71012 8.94139C8.8977 8.76809 9.06651 8.58074 9.21657 8.37933C9.39476 8.14046 9.54482 7.88285 9.66674 7.6065C9.72302 7.48004 9.76991 7.34889 9.81211 7.21775C9.83556 7.14281 9.85432 7.07255 9.87307 6.99761C9.91528 6.82899 9.95279 6.65101 9.97155 6.47302Z" fill="url(#paint1_linear_243_7619)"/>
<path fill-rule="evenodd" clip-rule="evenodd" d="M10.75 6C10.75 8.62335 8.62336 10.75 6.00001 10.75C3.37665 10.75 1.25 8.62335 1.25 6C1.25 3.37665 3.37665 1.25 6.00001 1.25C8.62336 1.25 10.75 3.37665 10.75 6ZM9.97188 6.47305C9.99063 6.3138 10 6.14987 10 5.98593C9.99063 3.77517 8.19463 1.99533 5.98596 2.00001C3.7726 2.00938 1.99066 3.80328 2.00004 6.0234C2.00004 6.18734 2.0141 6.35127 2.03286 6.5152C2.061 6.74003 2.10789 6.96017 2.17354 7.17094C2.30953 7.62058 2.52524 8.04213 2.8066 8.41215C2.95666 8.60887 3.12547 8.79154 3.30836 8.96015C4.02113 9.6112 4.97306 10.0046 6.01409 9.99996C7.05512 9.99527 8.00236 9.59715 8.71045 8.94142C8.89802 8.76812 9.06684 8.58076 9.2169 8.37936C9.39509 8.14049 9.54515 7.88288 9.66707 7.60653C9.72334 7.48007 9.77024 7.34892 9.81244 7.21778C9.83589 7.14283 9.85464 7.07258 9.8734 6.99764C9.91561 6.82902 9.95312 6.65103 9.97188 6.47305Z" fill="url(#paint2_linear_243_7619)"/>
<path fill-rule="evenodd" clip-rule="evenodd" d="M10.25 6C10.25 8.34721 8.34722 10.25 6.00001 10.25C3.65279 10.25 1.75 8.34721 1.75 6C1.75 3.65279 3.65279 1.75 6.00001 1.75C8.34722 1.75 10.25 3.65279 10.25 6ZM9.97188 6.47305C9.99063 6.3138 10 6.14987 10 5.98593C9.99063 3.77517 8.19463 1.99533 5.98596 2.00001C3.7726 2.00938 1.99066 3.80328 2.00004 6.0234C2.00004 6.18734 2.0141 6.35127 2.03286 6.5152C2.061 6.74003 2.10789 6.96017 2.17354 7.17094C2.30953 7.62058 2.52524 8.04213 2.8066 8.41215C2.95666 8.60887 3.12547 8.79154 3.30836 8.96015C4.02113 9.6112 4.97306 10.0046 6.01409 9.99996C7.05512 9.99527 8.00236 9.59715 8.71045 8.94142C8.89802 8.76812 9.06684 8.58076 9.2169 8.37936C9.39509 8.14049 9.54515 7.88288 9.66707 7.60653C9.72334 7.48007 9.77024 7.34892 9.81244 7.21778C9.83589 7.14283 9.85464 7.07258 9.8734 6.99764C9.91561 6.82902 9.95312 6.65103 9.97188 6.47305Z" fill="url(#paint3_radial_243_7619)" fill-opacity="0.1"/>
<defs>
<linearGradient id="paint0_linear_243_7619" x1="6" y1="1.75006" x2="11.9014" y2="3.11611" gradientUnits="userSpaceOnUse">
<stop stop-color="#FE6546"/>
<stop offset="1" stop-color="#FF9E0D"/>
</linearGradient>
<linearGradient id="paint1_linear_243_7619" x1="0.356101" y1="6.08096" x2="11.8052" y2="6.08096" gradientUnits="userSpaceOnUse">
<stop stop-color="#FFFCA8"/>
<stop offset="0.3123" stop-color="#FDB836"/>
<stop offset="0.7592" stop-color="#FDC966"/>
<stop offset="1" stop-color="#F1DC83"/>
</linearGradient>
<linearGradient id="paint2_linear_243_7619" x1="1.24485" y1="5.99844" x2="10.7521" y2="5.99844" gradientUnits="userSpaceOnUse">
<stop stop-color="#FFFCA8"/>
<stop offset="0.3123" stop-color="#FDB836"/>
<stop offset="0.7592" stop-color="#FDC966"/>
<stop offset="1" stop-color="#F1DC83"/>
</linearGradient>
<radialGradient id="paint3_radial_243_7619" cx="0" cy="0" r="1" gradientUnits="userSpaceOnUse" gradientTransform="translate(5.99788 5.99786) scale(4.24793 4.24793)">
<stop stop-color="white" stop-opacity="0"/>
<stop offset="1" stop-color="#571600"/>
</radialGradient>
</defs>
</svg>
