<svg width="60" height="60" viewBox="0 0 60 60" fill="none" xmlns="http://www.w3.org/2000/svg">
<g clip-path="url(#clip0_627_2051)">
<g clip-path="url(#clip1_627_2051)">
<path d="M1.46293 38.6291C5.14054 50.9922 16.5168 59.9999 29.9809 59.9999C46.4206 59.9999 59.7483 46.5682 59.7483 30C59.7483 13.4315 46.4206 0 29.9809 0C14.2054 0 1.29685 12.368 0.277344 28.0068C2.20392 31.2669 2.95513 33.2832 1.46293 38.6291Z" fill="url(#paint0_linear_627_2051)"/>
<path d="M28.4623 22.5596C28.4623 22.6096 28.4623 22.6596 28.4648 22.7065L21.2516 33.2666C20.0831 33.213 18.9106 33.4196 17.7988 33.8811C17.3162 34.0801 16.8539 34.3261 16.4186 34.6155L0.579531 28.0441C0.579531 28.0441 0.213152 34.1208 1.74041 38.6496L12.9377 43.3059C13.5 45.8381 15.2236 48.0592 17.7664 49.1276C21.9269 50.8795 26.724 48.8828 28.4547 44.6881C28.9051 43.5915 29.1151 42.4415 29.0847 41.294L39.4056 33.8607C39.4891 33.8633 39.5751 33.8658 39.6586 33.8658C45.8349 33.8658 50.8549 28.7913 50.8549 22.5596C50.8549 16.3274 45.8349 11.2574 39.6586 11.2574C33.4848 11.2574 28.4623 16.3274 28.4623 22.5596ZM26.7316 43.9588C25.3921 47.1998 21.6964 48.7375 18.484 47.3885C17.0021 46.7663 15.8832 45.6265 15.2377 44.2673L18.8825 45.7897C21.2516 46.7842 23.9696 45.652 24.9544 43.2651C25.9422 40.8758 24.8215 38.132 22.4537 37.1375L18.6862 35.5641C20.1398 35.0082 21.7926 34.9878 23.3368 35.6355C24.8936 36.2883 26.1016 37.5174 26.7417 39.0882C27.3819 40.659 27.3793 42.393 26.7316 43.9588ZM39.6586 30.0918C35.547 30.0918 32.1994 26.713 32.1994 22.5596C32.1994 18.4095 35.547 15.0297 39.6586 15.0297C43.7728 15.0297 47.1203 18.4095 47.1203 22.5596C47.1203 26.713 43.7728 30.0918 39.6586 30.0918ZM34.0693 22.5481C34.0693 19.4236 36.5793 16.8894 39.6712 16.8894C42.7657 16.8894 45.2757 19.4236 45.2757 22.5481C45.2757 25.6729 42.7657 28.2048 39.6712 28.2048C36.5793 28.2048 34.0693 25.6729 34.0693 22.5481Z" fill="white"/>
</g>
</g>
<defs>
<linearGradient id="paint0_linear_627_2051" x1="30.0128" y1="0" x2="30.0128" y2="60.0001" gradientUnits="userSpaceOnUse">
<stop stopColor="#111D2E"/>
<stop offset="0.212" stopColor="#051839"/>
<stop offset="0.407" stopColor="#0A1B48"/>
<stop offset="0.581" stopColor="#132E62"/>
<stop offset="0.738" stopColor="#144B7E"/>
<stop offset="0.873" stopColor="#136497"/>
<stop offset="1" stopColor="#1387B8"/>
</linearGradient>
<clipPath id="clip0_627_2051">
<rect width="60" height="60" fill="white"/>
</clipPath>
<clipPath id="clip1_627_2051">
<rect width="60" height="60" fill="white"/>
</clipPath>
</defs>
</svg>
