<svg width="9" height="11" viewBox="0 0 9 11" fill="none" xmlns="http://www.w3.org/2000/svg">
<path d="M9 4.44451H8.74139C8.27486 4.44503 7.81558 4.32376 7.40514 4.09167C6.9947 3.85959 6.64605 3.52402 6.39079 3.11537V7.64408C6.39306 8.30544 6.20789 8.95265 5.85866 9.50386C5.50944 10.0551 5.01185 10.4856 4.42884 10.7408C3.84583 10.9961 3.20358 11.0648 2.5833 10.9381C1.96301 10.8114 1.39255 10.495 0.944061 10.0291C0.495572 9.56311 0.189187 8.96843 0.0636624 8.32025C-0.0618627 7.67206 -0.000890303 6.99948 0.238858 6.38756C0.478607 5.77563 0.886365 5.25185 1.41058 4.88244C1.93479 4.51303 2.55191 4.31458 3.1839 4.3122H3.3793V5.96009C3.31608 5.96009 3.25286 5.96009 3.1839 5.96009C2.96179 5.94628 2.73933 5.98014 2.53019 6.05958C2.32105 6.13903 2.12963 6.26238 1.9677 6.42206C1.80577 6.58174 1.67677 6.77438 1.58858 6.98815C1.50039 7.20192 1.4549 7.43229 1.4549 7.66513C1.4549 7.89796 1.50039 8.12834 1.58858 8.34211C1.67677 8.55587 1.80577 8.74852 1.9677 8.9082C2.12963 9.06788 2.32105 9.19123 2.53019 9.27067C2.73933 9.35011 2.96179 9.38398 3.1839 9.37016C3.4028 9.3782 3.62107 9.341 3.82622 9.2607C4.03138 9.18039 4.2194 9.05856 4.37952 8.90216C4.53965 8.74576 4.66875 8.55787 4.75943 8.34922C4.85012 8.14057 4.90062 7.91526 4.90804 7.68618V0H6.41379C6.48111 0.685663 6.77736 1.32451 7.25041 1.80414C7.72345 2.28377 8.34299 2.57345 9 2.6222V4.45654" fill="#BDBDBD"/>
</svg>
