<svg width="24" height="24" viewBox="0 0 24 24" fill="none" xmlns="http://www.w3.org/2000/svg">
<path d="M16 21V19C16 17.9391 15.5786 16.9217 14.8284 16.1716C14.0783 15.4214 13.0609 15 12 15H5C3.93913 15 2.92172 15.4214 2.17157 16.1716C1.42143 16.9217 1 17.9391 1 19V21" stroke="url(#paint0_linear_278_4355)" stroke-width="2" stroke-linecap="round" stroke-linejoin="round"/>
<path d="M8.5 11C10.7091 11 12.5 9.20914 12.5 7C12.5 4.79086 10.7091 3 8.5 3C6.29086 3 4.5 4.79086 4.5 7C4.5 9.20914 6.29086 11 8.5 11Z" stroke="url(#paint1_linear_278_4355)" stroke-width="2" stroke-linecap="round" stroke-linejoin="round"/>
<path d="M20 8V14" stroke="url(#paint2_linear_278_4355)" stroke-width="2" stroke-linecap="round" stroke-linejoin="round"/>
<path d="M23 11H17" stroke="url(#paint3_linear_278_4355)" stroke-width="2" stroke-linecap="round" stroke-linejoin="round"/>
<defs>
<linearGradient id="paint0_linear_278_4355" x1="8.5" y1="15" x2="16.7195" y2="19.7567" gradientUnits="userSpaceOnUse">
<stop stop-color="#FE6546"/>
<stop offset="1" stop-color="#FF9E0D"/>
</linearGradient>
<linearGradient id="paint1_linear_278_4355" x1="8.5" y1="3" x2="14.0542" y2="4.2857" gradientUnits="userSpaceOnUse">
<stop stop-color="#FE6546"/>
<stop offset="1" stop-color="#FF9E0D"/>
</linearGradient>
<linearGradient id="paint2_linear_278_4355" x1="20.5" y1="8" x2="21.2304" y2="8.02818" gradientUnits="userSpaceOnUse">
<stop stop-color="#FE6546"/>
<stop offset="1" stop-color="#FF9E0D"/>
</linearGradient>
<linearGradient id="paint3_linear_278_4355" x1="20" y1="11" x2="21.4984" y2="13.0811" gradientUnits="userSpaceOnUse">
<stop stop-color="#FE6546"/>
<stop offset="1" stop-color="#FF9E0D"/>
</linearGradient>
</defs>
</svg>
