<svg width="12" height="10" viewBox="0 0 12 10" fill="none" xmlns="http://www.w3.org/2000/svg">
<path d="M11.9245 1.19608C11.5368 1.36798 11.1284 1.48671 10.71 1.54916C10.9061 1.54916 11.1928 1.1577 11.3135 1.01186C11.4934 0.784125 11.6291 0.523629 11.7133 0.244274C11.7133 0.244274 11.7133 0.198218 11.7133 0.182866C11.7029 0.176803 11.6912 0.173613 11.6793 0.173613C11.6674 0.173613 11.6557 0.176803 11.6454 0.182866C11.19 0.430156 10.706 0.618404 10.2046 0.743205C10.19 0.75279 10.1729 0.757886 10.1555 0.757886C10.1381 0.757886 10.1211 0.75279 10.1065 0.743205C10.0612 0.69715 10.0235 0.65109 9.97826 0.612711C9.76975 0.43042 9.5326 0.285113 9.27672 0.182866C8.93813 0.0396457 8.57128 -0.0208165 8.20557 0.00632483C7.852 0.0287957 7.50727 0.128263 7.19473 0.298005C6.87768 0.466189 6.59785 0.698685 6.3725 0.981154C6.13578 1.27095 5.96799 1.61243 5.88219 1.97902C5.81803 2.32651 5.81803 2.68311 5.88219 3.0306C5.88219 3.09201 5.88219 3.09969 5.83693 3.09201C3.92714 2.89529 2.15901 1.97791 0.880899 0.520605C0.820551 0.459198 0.790383 0.459198 0.745123 0.520605C0.485911 1.00426 0.387697 1.56037 0.465214 2.1056C0.542732 2.65083 0.791811 3.15581 1.1751 3.54488C1.27045 3.64034 1.3712 3.73005 1.47684 3.81354C1.1435 3.78743 0.818245 3.69622 0.51883 3.54488C0.458482 3.54488 0.435856 3.54489 0.428312 3.59094C0.417205 3.68784 0.417205 3.78572 0.428312 3.88262C0.489022 4.33886 0.668644 4.77024 0.948533 5.13198C1.22842 5.49372 1.59836 5.77263 2.01996 5.93975C2.12006 5.98898 2.22687 6.02262 2.3368 6.03953C2.0249 6.09564 1.70576 6.09564 1.39387 6.03953C1.32598 6.03953 1.30333 6.03953 1.32596 6.13164C1.48733 6.55922 1.75374 6.93755 2.09975 7.2305C2.44576 7.52346 2.85982 7.72124 3.30235 7.80497C3.38533 7.80497 3.47583 7.80497 3.56635 7.80497C3.34759 8.15039 2.57817 8.40369 2.22363 8.53418C1.56916 8.77243 0.871849 8.86408 0.179367 8.80284C0.0662153 8.80284 0.0435842 8.80284 0.0134105 8.80284C-0.0167631 8.80284 0.0134105 8.84889 0.0134105 8.87192C0.0134105 8.89494 0.300066 9.04846 0.443391 9.1329C0.877791 9.36624 1.33552 9.55152 1.80875 9.68555C3.02722 10.0592 4.3208 10.1006 5.55994 9.80562C6.79909 9.5106 7.94031 8.88952 8.86937 8.00455C9.54083 7.2669 10.0603 6.39988 10.3972 5.45465C10.734 4.50941 10.8814 3.50511 10.8307 2.50097C10.8307 2.42421 10.9212 2.37815 10.974 2.33978C11.3404 2.04622 11.6653 1.7027 11.9395 1.31889C11.9803 1.26366 12.0016 1.19605 11.9999 1.127C11.9999 1.127 11.9773 1.17305 11.9245 1.19608Z" fill="#BDBDBD"/>
</svg>
