<svg width="16" height="17" viewBox="0 0 16 17" fill="none" xmlns="http://www.w3.org/2000/svg">
<path d="M14.6669 11.7797V13.7797C14.6677 13.9654 14.6297 14.1492 14.5553 14.3193C14.4809 14.4894 14.3718 14.6421 14.235 14.7676C14.0982 14.8932 13.9367 14.9887 13.7608 15.0482C13.5849 15.1077 13.3985 15.1298 13.2136 15.1131C11.1622 14.8902 9.19161 14.1892 7.46028 13.0664C5.8495 12.0428 4.48384 10.6772 3.46028 9.06641C2.3336 7.32721 1.63244 5.34707 1.41361 3.28641C1.39695 3.10205 1.41886 2.91625 1.47795 2.74082C1.53703 2.5654 1.63199 2.4042 1.75679 2.26749C1.88159 2.13077 2.03348 2.02155 2.20281 1.94675C2.37213 1.87196 2.55517 1.83325 2.74028 1.83307H4.74028C5.06382 1.82989 5.37748 1.94446 5.62279 2.15543C5.8681 2.3664 6.02833 2.65937 6.07361 2.97974C6.15803 3.61978 6.31458 4.24822 6.54028 4.85307C6.62998 5.09169 6.64939 5.35102 6.59622 5.60033C6.54305 5.84964 6.41952 6.07848 6.24028 6.25974L5.39361 7.10641C6.34265 8.77544 7.72458 10.1574 9.39361 11.1064L10.2403 10.2597C10.4215 10.0805 10.6504 9.95697 10.8997 9.9038C11.149 9.85063 11.4083 9.87004 11.6469 9.95974C12.2518 10.1854 12.8802 10.342 13.5203 10.4264C13.8441 10.4721 14.1399 10.6352 14.3513 10.8847C14.5627 11.1343 14.6751 11.4528 14.6669 11.7797Z" stroke="#18130C" stroke-width="1.5" stroke-linecap="round" stroke-linejoin="round"/>
</svg>
