<svg width="16" height="17" viewBox="0 0 16 17" fill="none" xmlns="http://www.w3.org/2000/svg">
<g clipPath="url(#clip0_231_10423)">
<path d="M16.0008 7.99813C15.9043 6.43815 15.3535 4.94047 14.4162 3.68975C13.4789 2.43902 12.1961 1.48993 10.7259 0.959462C9.25571 0.428996 7.66242 0.340354 6.14246 0.704462C4.6225 1.06857 3.24231 1.86951 2.17205 3.00854C1.10179 4.14758 0.388246 5.57491 0.11938 7.11457C-0.149485 8.65423 0.0380834 10.2389 0.658963 11.6733C1.27984 13.1076 2.30689 14.3289 3.61349 15.1866C4.92009 16.0443 6.44912 16.5009 8.01209 16.5001H12.6674C13.5512 16.4993 14.3985 16.1478 15.0235 15.5228C15.6484 14.8979 15.9999 14.0506 16.0008 13.1668V7.99813ZM14.6674 13.1668C14.6674 13.6972 14.4567 14.2059 14.0816 14.581C13.7066 14.9561 13.1979 15.1668 12.6674 15.1668H8.01209C7.07137 15.1664 6.14131 14.9677 5.28255 14.5837C4.42379 14.1997 3.6556 13.639 3.02809 12.9381C2.39754 12.2376 1.92404 11.4104 1.63935 10.512C1.35466 9.61353 1.26535 8.66459 1.37742 7.7288C1.55438 6.25276 2.21755 4.87759 3.26238 3.82008C4.30722 2.76257 5.67429 2.08287 7.14809 1.88813C7.43558 1.8521 7.72501 1.83384 8.01475 1.83346C9.5684 1.82923 11.074 2.37207 12.2674 3.3668C12.9644 3.94609 13.5366 4.6609 13.9491 5.46789C14.3617 6.27487 14.606 7.15723 14.6674 8.06147V13.1668Z" fill="#18130C"/>
<path d="M5.33268 6.49984H7.99935C8.17616 6.49984 8.34573 6.4296 8.47075 6.30457C8.59578 6.17955 8.66602 6.00998 8.66602 5.83317C8.66602 5.65636 8.59578 5.48679 8.47075 5.36177C8.34573 5.23674 8.17616 5.1665 7.99935 5.1665H5.33268C5.15587 5.1665 4.9863 5.23674 4.86128 5.36177C4.73625 5.48679 4.66602 5.65636 4.66602 5.83317C4.66602 6.00998 4.73625 6.17955 4.86128 6.30457C4.9863 6.4296 5.15587 6.49984 5.33268 6.49984Z" fill="#18130C"/>
<path d="M10.666 7.8335H5.33268C5.15587 7.8335 4.9863 7.90373 4.86128 8.02876C4.73625 8.15378 4.66602 8.32335 4.66602 8.50017C4.66602 8.67698 4.73625 8.84655 4.86128 8.97157C4.9863 9.0966 5.15587 9.16684 5.33268 9.16684H10.666C10.8428 9.16684 11.0124 9.0966 11.1374 8.97157C11.2624 8.84655 11.3327 8.67698 11.3327 8.50017C11.3327 8.32335 11.2624 8.15378 11.1374 8.02876C11.0124 7.90373 10.8428 7.8335 10.666 7.8335Z" fill="#18130C"/>
<path d="M10.666 10.5H5.33268C5.15587 10.5 4.9863 10.5702 4.86128 10.6953C4.73625 10.8203 4.66602 10.9899 4.66602 11.1667C4.66602 11.3435 4.73625 11.5131 4.86128 11.6381C4.9863 11.7631 5.15587 11.8333 5.33268 11.8333H10.666C10.8428 11.8333 11.0124 11.7631 11.1374 11.6381C11.2624 11.5131 11.3327 11.3435 11.3327 11.1667C11.3327 10.9899 11.2624 10.8203 11.1374 10.6953C11.0124 10.5702 10.8428 10.5 10.666 10.5Z" fill="#18130C"/>
</g>
<defs>
<clipPath id="clip0_231_10423">
<rect width="16" height="16" fill="white" transform="translate(0 0.5)"/>
</clipPath>
</defs>
</svg>
