<svg width="16" height="17" viewBox="0 0 16 17" fill="none" xmlns="http://www.w3.org/2000/svg">
<g clipPath="url(#clip0_231_10420)">
<path d="M15.8908 6.36284C15.7544 5.92877 15.482 5.55011 15.1138 5.28286C14.7455 5.01561 14.3011 4.87395 13.8461 4.87884H10.9335L10.0488 2.12151C9.90968 1.68748 9.63631 1.30885 9.26811 1.04022C8.89991 0.771584 8.45591 0.626831 8.00013 0.626831C7.54435 0.626831 7.10035 0.771584 6.73215 1.04022C6.36395 1.30885 6.09058 1.68748 5.95146 2.12151L5.0668 4.87884H2.15413C1.70062 4.87949 1.25892 5.02343 0.892115 5.29011C0.525307 5.55679 0.252156 5.93257 0.111676 6.36377C-0.0288034 6.79496 -0.0294251 7.25953 0.1099 7.6911C0.249224 8.12267 0.521369 8.49918 0.887462 8.76684L3.25813 10.5002L2.3568 13.2915C2.21114 13.7244 2.20929 14.1928 2.35153 14.6269C2.49378 15.061 2.77249 15.4374 3.14613 15.7002C3.51336 15.9714 3.95839 16.1166 4.4149 16.1144C4.87141 16.1121 5.31496 15.9624 5.67946 15.6875L8.00013 13.9795L10.3215 15.6855C10.688 15.9551 11.1307 16.1016 11.5857 16.1038C12.0408 16.106 12.4848 15.9639 12.854 15.6978C13.2232 15.4318 13.4985 15.0555 13.6403 14.6232C13.7822 14.1908 13.7833 13.7246 13.6435 13.2915L12.7421 10.5002L15.1155 8.76684C15.4857 8.50254 15.7611 8.12604 15.9007 7.69307C16.0404 7.2601 16.0369 6.79368 15.8908 6.36284ZM14.3288 7.69017L11.5661 9.70951C11.4527 9.79229 11.3682 9.90879 11.3249 10.0424C11.2815 10.176 11.2815 10.3199 11.3248 10.4535L12.3748 13.7002C12.4279 13.8648 12.4275 14.0421 12.3735 14.2065C12.3195 14.3709 12.2148 14.514 12.0744 14.6151C11.934 14.7162 11.7652 14.7702 11.5921 14.7693C11.4191 14.7685 11.2508 14.7127 11.1115 14.6102L8.3948 12.6102C8.28037 12.5261 8.1421 12.4808 8.00013 12.4808C7.85815 12.4808 7.71989 12.5261 7.60546 12.6102L4.8888 14.6102C4.74952 14.7141 4.58075 14.771 4.40697 14.7726C4.23319 14.7742 4.06342 14.7203 3.92228 14.6189C3.78114 14.5175 3.67596 14.3738 3.62199 14.2086C3.56802 14.0434 3.56807 13.8653 3.62213 13.7002L4.67546 10.4535C4.71874 10.3199 4.71871 10.176 4.67537 10.0424C4.63203 9.90879 4.5476 9.79229 4.43413 9.70951L1.67146 7.69017C1.53233 7.5883 1.42895 7.44507 1.37609 7.28094C1.32323 7.1168 1.32359 6.94016 1.37712 6.77624C1.43065 6.61232 1.53461 6.46951 1.67416 6.36821C1.8137 6.26691 1.98169 6.2123 2.15413 6.21217H5.55413C5.69527 6.21217 5.83277 6.16737 5.94683 6.08422C6.06088 6.00108 6.14561 5.88388 6.1888 5.74951L7.22213 2.52884C7.27517 2.36403 7.37914 2.2203 7.51906 2.11834C7.65899 2.01638 7.82766 1.96144 8.0008 1.96144C8.17393 1.96144 8.3426 2.01638 8.48253 2.11834C8.62245 2.2203 8.72642 2.36403 8.77946 2.52884L9.8128 5.74951C9.85599 5.88388 9.94071 6.00108 10.0548 6.08422C10.1688 6.16737 10.3063 6.21217 10.4475 6.21217H13.8475C14.0199 6.2123 14.1879 6.26691 14.3274 6.36821C14.467 6.46951 14.5709 6.61232 14.6245 6.77624C14.678 6.94016 14.6784 7.1168 14.6255 7.28094C14.5726 7.44507 14.4693 7.5883 14.3301 7.69017H14.3288Z" fill="#18130C"/>
</g>
<defs>
<clipPath id="clip0_231_10420">
<rect width="16" height="16" fill="white" transform="translate(0 0.5)"/>
</clipPath>
</defs>
</svg>
