<svg width="60" height="60" viewBox="0 0 60 60" fill="none" xmlns="http://www.w3.org/2000/svg">
<g clip-path="url(#clip0_629_2136)">
<path d="M0 28.8C0 15.2236 0 8.43532 4.21766 4.21766C8.43532 0 15.2236 0 28.8 0L31.2 0C44.7765 0 51.5647 0 55.7823 4.21766C60 8.43532 60 15.2236 60 28.8L60 31.2C60 44.7765 60 51.5647 55.7823 55.7823C51.5647 60 44.7765 60 31.2 60L28.8 60C15.2236 60 8.43532 60 4.21766 55.7823C0 51.5647 0 44.7765 0 31.2L0 28.8Z" fill="#0077FF"/>
<path d="M31.9249 43.2251C18.2499 43.2251 10.45 33.8501 10.125 18.2501H16.975C17.2 29.7001 22.2499 34.5501 26.2499 35.5501L26.2499 18.2501H32.7001V28.1251C36.6501 27.7001 40.7996 23.2001 42.1996 18.2501H48.6498C47.5748 24.3501 43.0748 28.8501 39.8748 30.7001C43.0748 32.2001 48.2 36.1251 50.15 43.2251H43.0498C41.5248 38.4751 37.7251 34.8001 32.7001 34.3001V43.2251H31.9249Z" fill="white"/>
</g>
<defs>
<clipPath id="clip0_629_2136">
<rect width="60" height="60" rx="30" fill="white"/>
</clipPath>
</defs>
</svg>
