<svg width="60" height="60" viewBox="0 0 60 60" fill="none" xmlns="http://www.w3.org/2000/svg">
<g clip-path="url(#clip0_627_2039)">
<path d="M30.0004 59.9389C46.5352 59.9389 59.9393 46.5348 59.9393 30C59.9393 13.4653 46.5352 0.0611572 30.0004 0.0611572C13.4656 0.0611572 0.0615234 13.4653 0.0615234 30C0.0615234 46.5348 13.4656 59.9389 30.0004 59.9389Z" fill="#FC3F1D"/>
<path d="M40.8336 48.7944H34.2614V16.2888H31.3336C25.9669 16.2888 23.1558 18.9722 23.1558 22.9777C23.1558 27.5222 25.0947 29.6277 29.1058 32.3111L32.4114 34.5388L22.9114 48.7888H15.8447L24.3947 36.0666C19.4781 32.5555 16.7114 29.1277 16.7114 23.3444C16.7114 16.1166 21.7503 11.2 31.2892 11.2H40.7892V48.7833H40.8336V48.7944Z" fill="white"/>
</g>
<defs>
<clipPath id="clip0_627_2039">
<rect width="60" height="60" fill="white"/>
</clipPath>
</defs>
</svg>
