<svg width="14" height="10" viewBox="0 0 14 10" fill="none" xmlns="http://www.w3.org/2000/svg">
<path d="M14 3.13393C14 2.30276 13.6768 1.50563 13.1016 0.917905C12.5263 0.330179 11.7461 0 10.9326 0H3.06743C2.2539 0 1.47367 0.330179 0.898418 0.917905C0.323165 1.50563 0 2.30276 0 3.13393V6.86608C0 7.27763 0.0793398 7.68515 0.233492 8.06538C0.387644 8.4456 0.613581 8.79108 0.898418 9.0821C1.18325 9.37311 1.52141 9.60395 1.89357 9.76145C2.26572 9.91894 2.66461 10 3.06743 10H10.9326C11.3354 10 11.7343 9.91894 12.1064 9.76145C12.4786 9.60395 12.8167 9.37311 13.1016 9.0821C13.3864 8.79108 13.6124 8.4456 13.7665 8.06538C13.9207 7.68515 14 7.27763 14 6.86608V3.13393ZM9.38577 5.27679L5.89013 7.06251C5.75905 7.13393 5.28713 7.0625 5.28713 6.875V3.22322C5.28713 3.0625 5.75906 2.95536 5.89888 3.03572L9.26343 4.91072C9.37704 4.99107 9.52559 5.20536 9.38577 5.29464V5.27679Z" fill="#BDBDBD"/>
</svg>
